<svg width="199" height="268" viewBox="0 0 199 268" fill="none" xmlns="http://www.w3.org/2000/svg">
<path d="M3 14C6.84038 23.8143 3.90124 35.6112 5.05556 46C5.67687 51.5918 4 56.3135 4 61.9444C4 66.2024 5.7728 71.1 4.77778 75.2222C3.33995 81.1789 8.93469 92.299 4 96" stroke="black" stroke-width="3" stroke-linecap="round"/>
<path d="M132 14C135.743 24.8915 132.878 37.9832 134.003 49.5122C134.609 55.7177 132.975 60.9576 132.975 67.2066C132.975 71.9319 134.702 77.367 133.733 81.9417C132.331 88.5522 137.784 100.893 132.975 105" stroke="black" stroke-width="3" stroke-linecap="round"/>
<path d="M4 95C5.36705 95.3418 4.85457 97.0778 6 97.7778C7.36732 98.6134 9.4664 99.3518 11 99.7778C15.6915 101.081 20.7758 101.697 25.6111 102.056C38.7917 103.032 51.804 103 64.9444 103C75.6398 103 88.5506 102.578 99 104.778C107.907 106.653 122.384 107.872 131 105" stroke="black" stroke-width="3" stroke-linecap="round"/>
<path d="M4 12C5.40363 11.8697 4.97281 10.6425 6.17006 10.2502C7.59922 9.78183 9.7654 9.43547 11.3422 9.2601C16.1659 8.72363 21.3527 8.68704 26.2739 8.80835C39.6885 9.13903 52.8809 10.1471 66.2048 11.143C77.0495 11.9537 90.119 13.2211 100.827 12.5073C109.954 11.8988 124.696 12.1616 133.285 14.7805" stroke="black" stroke-width="3" stroke-linecap="round"/>
<path d="M7 20C15.5026 20 23.5762 20.7101 31.8751 21.6358C36.2722 22.1263 40.8187 21.5546 45.2395 21.6667C50.7731 21.8069 56.3054 22.6772 61.8967 22.7778C68.6735 22.8997 75.7208 23.0332 82.4276 24.1667C89.2447 25.3188 96.7205 24.5842 103.623 24.9691C106.941 25.1542 110.034 23.8889 113.335 23.8889C116.599 23.8889 119.815 23.7869 123.047 24.321C126.793 24.9401 131.232 25 135 25" stroke="black" stroke-width="3" stroke-linecap="round"/>
<path d="M5 32C13.5026 32 21.5762 32.4261 29.8751 32.9815C34.2722 33.2758 38.8187 32.9328 43.2395 33C48.7731 33.0842 54.3054 33.6063 59.8967 33.6667C66.6735 33.7398 73.7208 33.8199 80.4276 34.5C87.2447 35.1913 94.7205 34.7505 101.623 34.9815C104.941 35.0925 108.034 34.3333 111.335 34.3333C114.599 34.3333 117.815 34.2721 121.047 34.5926C124.793 34.964 129.232 35 133 35" stroke="black" stroke-width="3" stroke-linecap="round"/>
<path d="M11.6958 24C11.9645 24.3238 9.20846 26.6313 10.2269 26.7222C10.7868 26.7722 11.4063 26.9923 11.9066 27.2937C12.3159 27.5402 12.5424 27.9081 13 28" stroke="black" stroke-linecap="round"/>
<path d="M11.163 26C9.93764 26 16.0624 26 14.837 26" stroke="black" stroke-linecap="round"/>
<path d="M21.2846 27.7007C21.0088 27.4007 23.9664 25.3959 22.8952 25.2847C22.3062 25.2236 21.6584 25.0072 21.1381 24.7208C20.7124 24.4865 20.4821 24.1478 20.0019 24.0518" stroke="black" stroke-linecap="round"/>
<path d="M21.8239 26.1664C23.0326 26.1992 16.9883 26.1644 18.1969 26.1972" stroke="black" stroke-linecap="round"/>
<path d="M29.0001 25C29.3295 24.9341 28.2787 25.0015 28.014 25.2083C27.5431 25.5762 27.2336 26.2378 27.1528 26.8194C26.9713 28.1265 27.4809 29.3841 28.9515 29.493C30.0459 29.5741 31.6853 29.9194 32.1667 28.5625C32.3241 28.119 32.3322 27.3522 32.1945 26.9028C32.0742 26.5102 31.4943 26.2587 31.7501 25.875" stroke="black" stroke-linecap="round"/>
<path d="M30.75 26.625C31.0283 27.4599 32.1921 25.0674 32.25 25.1527C32.4179 25.4002 33.0579 26.721 32.75 26.875" stroke="black" stroke-linecap="round"/>
<path d="M118 27C118.476 28.147 122.357 28.1246 123 27.8268" stroke="black" stroke-linecap="round"/>
<path d="M127.159 28C127.004 28.062 127.421 28.2145 127.576 28.2778C128.092 28.4895 128.622 28.6088 129.159 28.75" stroke="black" stroke-linecap="round"/>
<path d="M127 30C127.67 30.1031 128.32 30.2994 129 30.375" stroke="black" stroke-linecap="round"/>
<path d="M126 31.875C127.008 31.947 127.982 32.25 129 32.25" stroke="black" stroke-linecap="round"/>
<path d="M38 26.75L38.25 26.875" stroke="black" stroke-linecap="round"/>
<path d="M118.101 27C118.101 27.7862 117.874 28.4841 118.101 29.2778C118.398 30.3185 119.007 31.15 120.17 31.2431C121.231 31.3279 122.263 30.4318 122.663 29.5069C122.929 28.8941 123.351 26.9571 123.351 27.625" stroke="black" stroke-linecap="round"/>
<path d="M40.0001 22.5C39.8587 22.0757 38.7028 24.7849 38.6251 25.1111C38.3924 26.0885 38.4644 27.1942 38.5001 28.1944C38.5278 28.9683 38.8954 29.8262 39.014 30.5972C39.088 31.078 38.6391 32.0694 39.0001 32.25" stroke="black" stroke-linecap="round"/>
<path d="M103.25 25.5C103.292 25.2044 104.688 26.3881 104.736 26.8889C104.826 27.8376 104.466 28.8222 104.306 29.75C104 31.5183 103.865 32.8061 104.5 34.5" stroke="black" stroke-linecap="round"/>
<path d="M48.5625 25.4375C48.1728 25.4604 47.7411 25.5628 47.434 25.8229C47.2788 25.9545 47.1214 26.1158 47.0694 26.3125C46.9795 26.6529 47.2333 27.0477 47.625 26.9861C48.1424 26.9048 48.3596 25.9434 47.7222 25.8577C46.8564 25.7412 46.8041 27.3592 47.5 27.2257C47.9502 27.1394 47.4076 26.321 46.9722 26.4584C46.4369 26.6273 46.8185 27.49 47.2153 27.2153C47.3141 27.1469 47.3601 26.9784 47.3125 26.8681C47.1373 26.4621 46.648 26.4437 46.3055 26.5695C46.1145 26.6396 45.7641 27.1074 45.9653 27.0764C46.2207 27.0371 46.1889 26.6002 46.0833 26.4931C45.7798 26.185 45.2065 26.5491 45.243 26.9271C45.2467 26.9648 45.3426 26.9059 45.3403 26.8681C45.3171 26.5001 45.0727 26.2429 44.7083 26.1389C44.5001 26.0795 44.2647 26.0886 44.059 26.1563C43.8341 26.2303 43.4901 26.6384 43.691 26.7639C44.0262 26.9734 44.5536 25.7666 43.5764 25.9584C43.0854 26.0547 43.2047 26.4652 43.5278 26.125C44.0491 25.5761 43.7812 25.0081 43.2014 24.6945C42.954 24.5607 42.9457 24.6014 42.8542 24.3611C42.7594 24.1125 42.5438 23.9357 42.2673 24.0278C41.5139 24.2789 41.2698 25.1034 41 25.75C40.812 26.2004 40.6471 26.6763 40.6111 27.1667C40.5932 27.4103 40.6171 27.643 40.6667 27.882C40.673 27.9126 40.873 28.726 40.7673 28.7049C40.6076 28.6729 40.6163 28.0448 40.618 27.9861C40.6329 27.4962 40.7967 27.0696 41.0104 26.6354C41.3192 26.0082 41.7128 25.4013 41.9722 24.75C42.0817 24.4752 42.1979 23.5724 41.7465 23.4757C41.4958 23.422 40.9032 24.1522 40.7639 24.3195C40.2782 24.9023 39.9438 25.6625 39.8437 26.4028C39.7575 27.0407 40.1584 27.6066 40.1111 28.2153C40.0429 29.0922 40.1099 29.8647 40.2986 30.7327C40.3403 30.9245 40.25 31.5157 40.25 31.3195C40.25 30.2726 40.3155 29.2662 40.6076 28.2535C40.8511 27.4095 41.1699 26.3006 41.9201 25.7604C42.3092 25.4803 42.8156 25.2372 43.2778 25.1111C44.1925 24.8617 43.3866 25.8488 43.2917 26.1459C42.719 27.9376 46.3505 28.4721 46.2153 27.1459C46.1322 26.3309 45.0294 26.7639 44.7187 27.0139C44.0174 27.5783 43.5588 29.0099 44.8055 29.2674C45.022 29.3121 46.4708 29.1273 45.9305 28.4931C45.4706 27.9531 44.4203 28.2375 44.0278 28.6875C43.6108 29.1655 43.7775 29.9574 44.4444 30.0903C44.6835 30.1379 45.1453 30.0008 45.1111 29.6459C45.0751 29.2719 44.5624 29.0408 44.2778 29C43.8416 28.9375 42.9662 29.2111 43.184 29.8472C43.3046 30.1995 43.7096 30.2664 44.0139 30.2396C44.1625 30.2265 44.485 29.9981 44.3472 29.941C43.9354 29.7702 43.7825 30.4399 43.8194 30.6806C43.888 31.1271 44.1657 31.1825 44.5 31.3125" stroke="black" stroke-width="3" stroke-linecap="round"/>
<path d="M46.4999 24.3125C46.139 24.4468 45.6489 24.6023 45.4721 24.9861C45.1896 25.5992 46.3368 25.5428 46.4235 25.0069C46.5113 24.4635 45.3691 24.6667 45.4096 25.3333C45.477 26.4426 46.8342 24.9315 45.7186 24.8854C45.3606 24.8706 45.0437 25.1289 44.8992 25.434C44.8457 25.5469 44.7533 25.9995 45.0832 25.9618C45.3028 25.9367 45.4308 25.647 45.4755 25.4792C45.5476 25.2091 45.2907 26.0093 45.2429 26.2847C45.1754 26.674 45.2685 26.4296 45.0207 26.4931C44.5361 26.6172 44.369 26.8152 44.0901 27.3056C43.3288 28.6443 43.3405 30.1869 42.7707 31.5729C42.7576 31.6048 42.303 32.2738 42.1943 31.934C42.1456 31.782 42.3903 31.6738 42.5242 31.5868C43.2115 31.1403 44.0105 30.8538 44.7985 30.6458C46.8378 30.1075 49.0372 29.8012 51.1457 29.8472C52.3273 29.873 53.2148 30.0238 54.354 30.25C54.5274 30.2844 55.95 30.7732 56.2429 30.6076C56.4521 30.4894 55.8169 30.3781 55.5867 30.309C54.7793 30.0668 54.0341 29.9023 53.1943 29.7674C52.6469 29.6794 51.5888 29.5208 50.9617 29.5972C50.881 29.607 50.7051 29.6665 50.7568 29.7292C50.8851 29.8847 51.984 30.1245 52.0137 30.1319C53.7006 30.5526 51.2874 30.3499 51.0485 30.3611C50.7607 30.3746 50.4712 30.3847 50.1874 30.434C50.0806 30.4526 49.8459 30.463 49.8887 30.5625C49.9469 30.6977 50.1619 30.6758 50.3054 30.7083C50.6841 30.7942 51.2745 30.8565 51.6769 30.9028C52.3605 30.9814 50.2913 30.6922 49.6144 30.816C49.3131 30.8711 50.1972 31.0148 50.4999 31.0625C52.7701 31.4203 51.5015 31.1558 54.1144 31.6007C56.1378 31.9452 56.0211 31.9615 57.8714 32.3542C58.1913 32.4221 58.5074 32.519 58.8332 32.5486C58.8802 32.5529 58.7931 32.4531 58.7499 32.434C58 32.1039 56.6979 31.7537 55.9999 31.5729C55.06 31.3295 52.2305 30.6847 53.1387 31.0278C53.949 31.3339 56.5364 31.688 55.7012 31.4583C55.0599 31.282 53.8761 31.1703 53.3124 31.1319C52.7774 31.0955 52.2409 31.0805 51.7047 31.0764C51.3261 31.0735 50.9469 31.0824 50.5693 31.1111C50.4738 31.1184 50.2207 31.1196 50.2915 31.184C50.4801 31.3555 52.5117 31.3765 50.8297 30.9028C34.0114 26.1662 60.4561 33.6787 49.0728 30.5243C49.0308 30.5127 49.1577 30.5015 49.2012 30.5C50.3399 30.4602 50.537 30.5295 51.7915 30.3681C52.0884 30.3298 53.6525 30.1237 54.0276 29.7361C54.2987 29.456 53.4739 29.1278 53.0971 29.0278C52.4927 28.8674 51.8314 28.9311 51.2499 28.7014C50.7459 28.5023 52.4068 28.5963 52.8054 28.2292C53.0819 27.9745 52.1583 27.8077 51.788 27.7431C51.3376 27.6644 50.0021 27.4567 50.42 27.6424C50.6184 27.7306 51.6647 27.6638 51.7117 27.6562C51.8401 27.6356 52.0846 27.6292 52.0693 27.5C52.0525 27.3578 51.8151 27.3542 51.6735 27.3333C51.4307 27.2976 51.1769 27.2803 50.9374 27.3333C49.6235 27.6239 52.2589 28.2491 52.1249 28.0069C52.0435 27.86 51.8064 27.8832 51.6387 27.875C51.2776 27.8574 50.9094 27.8569 50.5554 27.9306C50.2225 27.9999 49.876 28.0946 49.604 28.2986C49.0418 28.7203 49.4629 29.0717 49.9096 29.2118C49.9705 29.2309 51.1372 29.4231 51.2776 29.0451C51.4373 28.6153 50.3779 28.702 49.9269 28.7847C49.2533 28.9082 48.6174 29.1365 48.3644 29.8368C48.29 30.0428 48.335 30.2826 48.3957 30.4931C48.6243 31.2857 48.6164 30.6376 48.9374 31.125" stroke="black" stroke-width="3" stroke-linecap="round"/>
<path d="M65.0626 29.3125C63.1672 28.5228 61.1053 27.8558 59.0695 27.5834C58.587 27.5188 58.0976 27.4841 57.6112 27.5035C57.1786 27.5207 56.2285 27.6712 56.4341 28.0521C56.5514 28.2693 56.818 28.3773 57.0487 28.4653C57.7555 28.7349 59.2445 28.9663 59.9653 29.007C60.3298 29.0275 60.7075 29.053 61.0591 28.9549C61.8329 28.7388 60.8861 28.254 60.7883 28.2188C60.522 28.1229 60.221 28.0649 59.9445 28.125C59.2966 28.2658 59.3615 28.695 59.7778 29.0278C59.9992 29.2047 60.3023 29.2448 60.5521 29.3785C61.0911 29.6669 60.8723 29.615 60.4063 29.9202C60.2098 30.0489 59.7036 30.2887 59.9028 30.4132C60.0453 30.5023 60.3367 30.2541 59.8646 30.4202C59.1196 30.6823 59.0752 31.1301 59.9306 31.3889C60.4181 31.5364 60.9845 31.4127 61.4549 31.5695C61.4768 31.5768 61.3914 31.5716 61.3889 31.5486C61.3817 31.4802 61.4972 31.2887 61.5487 31.2639C61.5764 31.2505 61.6041 31.2934 61.6251 31.316C61.9426 31.6573 61.7697 31.665 62.4167 31.8229C62.6972 31.8914 62.9898 31.9366 63.2778 31.9167C63.6605 31.8903 64.1886 31.712 63.5903 31.2986C62.7685 30.7308 61.25 30.2548 60.2431 30.4514C60.1793 30.4639 60.172 30.6151 60.2292 30.6459C60.5674 30.8273 61.5008 30.9336 61.8403 30.8125C62.6931 30.5083 61.5448 29.731 61.4167 29.6389C60.4262 28.9265 58.6645 28.1357 57.5834 27.6597C56.4605 27.1654 55.261 26.8015 54.2188 26.1389C53.6989 25.8083 53.2857 25.5317 52.6737 25.382C51.0593 24.987 49.3534 24.783 47.7084 24.5486C46.7396 24.4106 45.7706 24.2469 44.7917 24.2014C44.6784 24.1961 44.5649 24.1937 44.4514 24.191C44.3425 24.1884 44.0673 24.266 44.1251 24.1736C44.2157 24.0287 44.4541 24.0796 44.6216 24.0452C45.1772 23.931 45.5442 23.8627 46.132 23.809C48.521 23.5911 50.9831 23.9928 53.3334 24.3854C55.4726 24.7428 57.5943 25.1786 59.7153 25.6285C61.5085 26.0088 63.3178 26.4101 65.1494 26.5486C65.9746 26.611 66.8046 26.6272 67.632 26.625C67.7389 26.6247 68.2794 26.6265 68.4584 26.5834C68.8069 26.4993 68.375 26.5626 68.5626 26.4375" stroke="black" stroke-width="3" stroke-linecap="round"/>
<path d="M72.375 28.75C72.4648 28.7425 72.6123 28.7443 72.3229 28.691C70.4092 28.3385 68.4349 28.1634 66.5 27.9792C65.4712 27.8812 64.4674 27.8028 63.4375 27.8681C63.1699 27.885 63.1272 27.8855 62.9375 27.75" stroke="black" stroke-width="3" stroke-linecap="round"/>
<path d="M69.8748 29.6875C69.9354 29.6799 70.2551 29.6261 70.0067 29.5764C68.7249 29.32 67.3376 29.1276 66.0345 29.0833C65.61 29.0689 63.1644 29.0913 64.2081 30.2083C64.8733 30.9203 66.0289 31.2392 66.9373 31.4722C68.6369 31.9083 70.4009 32.2655 72.1525 32.375C73.0536 32.4313 73.9479 32.5188 74.847 32.5972C75.0557 32.6154 75.4449 32.6543 75.6734 32.6042C76.1518 32.4992 75.6298 32.5502 75.9998 32.375" stroke="black" stroke-width="3" stroke-linecap="round"/>
<path d="M61.2501 25.5C61.2121 25.4801 60.8978 25.3367 61.0765 25.2778C61.6271 25.0963 62.3955 25.2944 62.9446 25.375C64.5905 25.6165 66.2112 25.7523 67.8682 25.8819C69.6361 26.0202 71.3437 26.2696 73.0731 26.6528C74.2367 26.9106 75.5182 27.2127 76.6876 26.9375" stroke="black" stroke-width="3" stroke-linecap="round"/>
<path d="M68.5 30C70.4102 30.2075 72.2704 30.6215 74.1667 30.9132C75.059 31.0505 75.9569 31.14 76.8472 31.2917C77.5448 31.4105 78.2345 31.5714 78.941 31.6319C79.9354 31.7172 80.9533 31.6592 81.9514 31.6875C82.5173 31.7035 83.1017 31.7374 83.6597 31.6146C83.748 31.5952 83.8369 31.5703 83.9167 31.5278C84.2035 31.375 83.8352 31.5114 83.9375 31.375" stroke="black" stroke-width="3" stroke-linecap="round"/>
<path d="M69.8125 25.3125C69.9253 25.4736 70.3905 25.5243 70.5278 25.5556C71.7652 25.837 73.019 25.9833 74.2743 26.1562C76.2688 26.431 78.2336 26.8956 80.2257 27.1771C81.179 27.3118 82.1452 27.3321 83.1042 27.4062C84.205 27.4914 85.3142 27.3824 86.4097 27.4861C88.3204 27.667 90.2071 28.5334 92.125 28.4375" stroke="black" stroke-width="3" stroke-linecap="round"/>
<path d="M72 27.625C72.0999 27.7249 72.2692 27.712 72.4062 27.7465C73.3327 27.98 74.2675 28.181 75.2014 28.3819C78.1431 29.0148 81.103 29.7819 84.0799 30.2326C86.4969 30.5986 88.9302 30.4417 91.3576 30.6458C93.2202 30.8024 95.003 31.3122 96.8125 31.75" stroke="black" stroke-width="3" stroke-linecap="round"/>
<path d="M81.9374 32.25C81.6985 32.668 83.412 32.996 83.486 33.0069C85.163 33.2544 86.8337 32.9274 88.5138 32.9514C89.7846 32.9695 91.0434 33.1156 92.3054 33.25C93.546 33.3821 94.786 33.4556 96.0276 33.566C96.9743 33.6501 97.8613 33.6485 98.802 33.5C99.5115 33.388 100.203 33.2842 100.923 33.3472C101.509 33.3985 102.103 33.469 102.677 33.5972C102.89 33.6448 103.562 33.9589 103.562 33.625" stroke="black" stroke-width="3" stroke-linecap="round"/>
<path d="M76.2502 26.5625C76.2336 26.5377 76.0465 26.4502 76.1252 26.4236C76.6619 26.2422 77.3751 26.3521 77.9238 26.3889C78.8755 26.4528 79.8388 26.3888 80.7814 26.5382C83.9397 27.0389 87.0719 27.6147 90.271 27.75C91.9884 27.8227 93.7081 27.8247 95.4238 27.9375C96.6021 28.015 97.7567 28.2077 98.9411 28.1841C99.8504 28.1659 100.762 28.0714 101.67 28.1632C102.116 28.2083 102.556 28.288 102.997 28.3681C103.212 28.4072 103.427 28.5218 103.375 28.3125" stroke="black" stroke-width="3" stroke-linecap="round"/>
<path d="M103.75 27.4375C103.404 27.2341 102.871 27.2238 102.493 27.1805C100.748 26.9806 99.0002 26.8647 97.2674 26.566C95.8633 26.3239 94.3559 26.0585 92.9375 26.1875" stroke="black" stroke-width="3" stroke-linecap="round"/>
<path d="M93.75 29.5C95.7068 29.5889 97.6188 30 99.5833 30C100.766 30 101.211 30.2004 101.972 31.125C103.067 32.4548 99.7525 32.3145 99.25 32.1944C97.1556 31.694 98.9975 30.7475 98.5 30.25" stroke="black" stroke-width="3" stroke-linecap="round"/>
<path d="M99.75 27.125C100.752 27.6174 101.662 28.1091 102.306 29.0556C102.505 29.3492 102.567 29.8028 102.819 30.0556C103.011 30.2471 103.5 30.5 103.5 30.5" stroke="black" stroke-width="3" stroke-linecap="round"/>
<path d="M43.1685 26.0114C43.1622 26.0441 43.2489 25.5579 43.5473 25.3621C44.3328 24.8466 45.0976 24.9596 45.2726 25.9178C45.4278 26.7673 44.6938 28.6221 45.995 27.3777C46.423 26.9685 46.8174 26.4928 47.3251 26.1763C47.4331 26.1089 47.2626 27.1033 47.2609 27.223C47.2483 28.0782 47.5896 28.679 48.4302 28.0648C49.1571 27.5337 50.4161 26.2344 50.4161 26.2344" stroke="white" stroke-linecap="round"/>
<path d="M50.4033 26.4966C50.397 26.5293 50.4838 26.0432 50.7821 25.8473C51.5676 25.3318 52.3324 25.4448 52.5075 26.403C52.6626 27.2525 51.9286 29.1073 53.2299 27.863C53.6579 27.4537 54.0523 26.978 54.5599 26.6615C54.668 26.5941 54.4975 27.5885 54.4957 27.7082C54.4832 28.5635 54.8244 29.1642 55.665 28.55C56.3919 28.0189 57.651 26.7196 57.651 26.7196" stroke="white" stroke-linecap="round"/>
<path d="M57.3955 26.8325C57.3892 26.8652 57.476 26.379 57.7743 26.1832C58.5598 25.6677 59.3246 25.7807 59.4996 26.7389C59.6548 27.5884 58.9208 29.4432 60.2221 28.1988C60.6501 27.7896 61.0445 27.3139 61.5521 26.9974C61.6602 26.93 61.4897 27.9244 61.4879 28.0441C61.4754 28.8994 61.8166 29.5001 62.6572 28.8859C63.3841 28.3548 64.6432 27.0555 64.6432 27.0555" stroke="white" stroke-linecap="round"/>
<path d="M65.2785 29.4512C65.4633 29.3003 65.6125 29.3181 65.4154 29.2075" stroke="white" stroke-linecap="round"/>
<path d="M88.2642 30.3051C88.3364 30.4687 88.5117 30.6924 88.371 30.6856" stroke="white" stroke-linecap="round"/>
<path d="M92.7404 29.4012C92.9635 29.3504 93.6848 29.2254 93.5195 28.8129C93.2393 28.1138 92.2452 28.9364 92.0276 29.1862C91.5542 29.7298 90.8947 30.8411 91.4552 31.5504C92.0813 32.3428 92.75 31.4464 93.2807 31.1792" stroke="white" stroke-linecap="round"/>
<path d="M95.2936 29.8555C95.0025 29.508 94.5776 30.113 94.5581 30.4042C94.4797 31.5753 96.0564 31.2352 96.3914 30.4505C96.6587 29.8243 96.5124 28.2369 95.4705 28.7794C94.8066 29.1251 94.5283 29.7926 94.2648 30.4318" stroke="white" stroke-linecap="round"/>
<path d="M97.212 31.6068C97.3592 32.0651 98.3364 30.5293 98.4079 30.4476C98.5096 30.3313 99.2368 29.522 99.4393 29.9618C99.6 30.3109 99.3716 30.8697 99.3093 31.2209C99.2923 31.3166 99.2169 31.6389 99.404 31.4201C99.7749 30.9866 100.097 30.5527 100.6 30.254C100.989 30.0231 101.293 29.9902 101.368 30.4855C101.457 31.0762 101.626 31.5173 101.82 32.0785" stroke="white" stroke-linecap="round"/>
<path d="M69.9359 27.0132C69.973 26.9396 70.1198 26.8877 70.1332 26.8141C70.2316 26.2753 68.7806 26.6271 68.6657 26.6811C67.3844 27.2834 66.4429 30.2027 68.5238 30.3591C68.8763 30.3856 70.6419 29.4626 69.9668 28.9753C69.7517 28.8201 68.8292 28.9842 68.978 28.7192" stroke="white" stroke-linecap="round"/>
<path d="M71.8854 28.108C71.4089 28.4149 70.6019 29.308 71.2968 29.7969C72.3051 30.5065 73.3853 29.3288 73.6908 28.445C73.9209 27.7791 73.8989 26.5042 72.8613 26.8965C72.1515 27.1648 71.4716 27.7775 71.2432 28.4525" stroke="white" stroke-linecap="round"/>
<path d="M74.5134 28.1091C74.0482 28.2628 73.5642 28.9228 73.769 29.4221C74.2613 30.6225 75.8697 29.7247 76.3129 29.002C76.6019 28.5307 77.0028 27.4691 76.4062 27.0598C75.5566 26.477 74.6455 27.8134 74.2517 28.3468" stroke="white" stroke-linecap="round"/>
<path d="M78.6514 27.9325C79.1574 27.5132 78.8732 26.9932 78.2229 27.3001C77.5395 27.6227 76.0511 29.0593 76.8672 29.9047C77.347 30.4018 78.2577 29.9168 78.6768 29.5745C79.1853 29.1593 78.2427 29.0846 77.9731 29.0262" stroke="white" stroke-linecap="round"/>
<path d="M80.4237 27.517C80.5227 27.4639 81.2332 26.9359 81.2566 26.9661C81.4274 27.1858 79.9703 29.2118 79.786 29.5026C79.6411 29.7311 79.1374 30.1702 79.612 30.2312C80.4594 30.3401 81.131 30.6917 81.8789 31.091" stroke="white" stroke-linecap="round"/>
<path d="M83.366 28.0674C84.009 28.1387 82.7347 30.3033 82.6808 30.7529C82.5888 31.5198 84.0952 31.3562 84.5834 31.3797" stroke="white" stroke-linecap="round"/>
<path d="M83.1221 27.9306C83.5071 28.0696 86.2304 28.3518 86.2195 28.58" stroke="white" stroke-linecap="round"/>
<path d="M83.3057 29.316C83.8314 29.5668 84.3629 29.7911 84.8988 30.0183" stroke="white" stroke-linecap="round"/>
<path d="M45.722 58.25C47.0307 56.5673 43.0494 56.1641 42.2775 56.3889C40.3341 56.9548 38.2772 59.6072 38.0414 61.6111C37.7303 64.2556 39.1852 67.0623 41.972 67.6389C43.0756 67.8672 49.1804 66.0929 47.2914 64.4028C46.6162 63.7986 43.6588 62.7711 42.972 63" stroke="#100262" stroke-width="2" stroke-linecap="round"/>
<path d="M45.722 58.25C47.0307 56.5673 43.0494 56.1641 42.2775 56.3889C40.3341 56.9548 38.2772 59.6072 38.0414 61.6111C37.7303 64.2556 39.1852 67.0623 41.972 67.6389C43.0756 67.8672 49.1804 66.0929 47.2914 64.4028C46.6162 63.7986 43.6588 62.7711 42.972 63" stroke="#100262" stroke-width="2" stroke-linecap="round"/>
<path d="M50.9722 57.1577C51.3151 58.1864 50.7368 59.8721 50.6944 60.9077C50.6085 63.0034 50.7259 65.2171 52.9999 65.9633C55.8183 66.888 58.4526 65.1353 59.3611 62.4633C60.0674 60.3858 58.2774 57.4965 56.2222 56.8799C53.7661 56.1431 51.6879 58.7056 50.4722 60.4077" stroke="#940909" stroke-width="2" stroke-linecap="round"/>
<path d="M63.9722 57.1577C64.3151 58.1864 63.7368 59.8721 63.6944 60.9077C63.6085 63.0034 63.7259 65.2171 65.9999 65.9633C68.8183 66.888 71.4526 65.1353 72.3611 62.4633C73.0674 60.3858 71.2774 57.4965 69.2222 56.8799C66.7661 56.1431 64.6879 58.7056 63.4722 60.4077" stroke="#A2A507" stroke-width="2" stroke-linecap="round"/>
<path d="M89.2222 56C89.7146 56.0328 88.3251 63.9059 88.5972 65.375C88.9309 67.1772 88.397 67.7175 90.5555 67.0556C91.2282 66.8493 93.7222 67.4924 93.7222 67.25" stroke="#1E7808" stroke-width="2" stroke-linecap="round"/>
<path d="M96.9721 57.25C97.6161 58.538 96.8489 60.6841 96.8332 62.0833C96.8247 62.8359 97.111 63.561 97.111 64.3056C97.111 65.207 96.9721 66.0926 96.9721 67C96.9721 67.9993 99.02 67.3079 99.7221 67.4444C100.352 67.5668 100.859 68 101.472 68" stroke="#940909" stroke-width="2" stroke-linecap="round"/>
<path d="M96.4722 58.25C97.6963 57.8605 99.4297 58.3703 100.722 58.5139C101.13 58.5593 102.565 59 102.472 59" stroke="#940909" stroke-width="2" stroke-linecap="round"/>
<path d="M97.2222 63C98.3842 63.2324 99.5323 63.5 100.722 63.5" stroke="#940909" stroke-width="2" stroke-linecap="round"/>
<path d="M76.4722 61.5C76.5565 67.0632 85.5677 67.8845 85.4166 62.0833C85.3358 58.9795 82.0129 57.8923 79.6388 59.3611C77.6579 60.5867 76.8298 62.4989 75.9722 64.5" stroke="#100262" stroke-width="3" stroke-linecap="round"/>
<path d="M84.9722 62.75C84.6714 65.6075 85.1667 71.976 80.8333 72.4444C79.616 72.576 78.5573 71.999 77.6666 71.25C76.9294 70.6301 76.8815 69.7445 76.2222 69.25" stroke="#100262" stroke-width="3" stroke-linecap="round"/>
<path d="M73.8695 75.3132C70.3941 75.1856 67.042 74.5913 63.5915 74.3331C60.6327 74.1116 57.6601 74.4359 54.6772 74.2273C51.8241 74.0278 49.3644 74.1461 46.918 75.6574C45.3503 76.6258 43.4989 78.8888 45.5403 80.2377C47.312 81.4084 49.5737 81.9692 51.7431 82.1709C55.0123 82.4749 58.3766 82.6181 61.671 82.6039C68.7624 82.5731 75.864 83.6488 82.8598 81.8223" stroke="black" stroke-linecap="round"/>
<path d="M77.362 74.6546C76.8518 73.8319 69.8284 74.913 75.598 75.0902C80.1068 75.2286 84.6327 74.2407 89.1173 74.9988C91.8068 75.4535 95.9417 78.6035 92.513 80.768C88.9165 83.0385 84.1991 82.033 80.1467 82.0916" stroke="black" stroke-linecap="round"/>
<path d="M57.3355 102.908C59.1917 108.715 56.5512 112.752 52.5668 116.756C49.625 119.713 51.0953 123.125 54.7392 124.929C59.7278 127.399 64.911 126.972 70.3964 126.972C73.9155 126.972 79.787 126.149 80.8611 122.205C81.5341 119.733 79.678 116.716 77.0991 116.176C74.7094 115.675 72.9377 113.628 72.1185 111.434C71.3726 109.437 77.2148 102.383 76.4103 102" stroke="black" stroke-width="3" stroke-linecap="round"/>
<path d="M2.1295 150.198C3.1093 159.162 4.42186 168.778 4.30832 177.792C4.24758 182.615 9.99377 181.312 12.6762 181.759C20.418 183.048 27.8116 183.91 35.5679 183.81C44.0549 183.701 52.4417 182.723 60.963 183.094C67.9472 183.398 74.9489 183.701 81.909 183.43C89.6158 183.129 96.9615 180.757 104.617 180.307C112.764 179.829 121.488 179.69 129.653 181.718C133.171 182.592 136.48 184.959 139.052 181.853" stroke="black" stroke-width="3" stroke-linecap="round"/>
<path d="M5 173.202C12.8594 174.41 20.8246 173.45 28.7098 173.876C34.7871 174.205 40.8675 174.012 46.9406 173.527C50.4896 173.243 54.0088 173.531 57.5615 173.639C61.139 173.748 64.6643 172.833 68.2482 173.027C70.5538 173.152 72.9363 173.851 75.2245 173.427C77.1509 173.07 79.1034 173.202 81.0409 173.202C82.6328 173.202 84.1124 173.732 85.648 174.326C86.9676 174.836 88.8928 175 90 175" stroke="black" stroke-width="3" stroke-linecap="round"/>
<path d="M15.9998 150.75C15.1614 151.828 16.7914 154.111 16.3748 155.361C15.9679 156.582 16.721 158.066 16.7498 159.306C16.7781 160.525 17.2498 161.7 17.2498 162.903C17.2498 164.32 17.2194 165.869 17.5554 167.25C17.7421 168.018 18.0597 168.717 17.9859 169.528C17.9078 170.387 17.6367 171.143 17.8748 172C18.1814 173.104 18.2498 174.465 18.2498 175.611C18.2498 177.196 17.8057 179.612 18.4998 181" stroke="black" stroke-width="3" stroke-linecap="round"/>
<path d="M54.2662 150C53.3494 151.14 55.1318 153.556 54.6763 154.878C54.2314 156.169 55.0548 157.739 55.0863 159.051C55.1174 160.34 55.6331 161.584 55.6331 162.856C55.6331 164.355 55.5999 165.994 55.9672 167.455C56.1715 168.267 56.5187 169.006 56.4381 169.864C56.3526 170.773 56.0562 171.573 56.3166 172.479C56.6519 173.647 56.7266 175.087 56.7266 176.299C56.7266 177.976 56.241 180.531 57 182" stroke="black" stroke-width="3" stroke-linecap="round"/>
<path d="M65.2662 150C64.3494 151.176 66.1318 153.667 65.6763 155.03C65.2314 156.362 66.0548 157.981 66.0863 159.333C66.1174 160.663 66.6331 161.946 66.6331 163.258C66.6331 164.803 66.5999 166.493 66.9672 168C67.1715 168.838 67.5187 169.6 67.4381 170.485C67.3526 171.423 67.0562 172.247 67.3166 173.182C67.6519 174.386 67.7266 175.871 67.7266 177.121C67.7266 178.85 67.241 181.486 68 183" stroke="black" stroke-width="3" stroke-linecap="round"/>
<path d="M76.2662 169C75.3494 169.463 77.1318 170.445 76.6763 170.982C76.2314 171.506 77.0548 172.144 77.0863 172.677C77.1174 173.201 77.6331 173.706 77.6331 174.223C77.6331 174.832 77.5999 175.497 77.9672 176.091C78.1715 176.421 78.5187 176.721 78.4381 177.07C78.3526 177.439 78.0562 177.764 78.3166 178.132C78.6519 178.607 78.7266 179.192 78.7266 179.684C78.7266 180.365 78.241 181.403 79 182" stroke="black" stroke-width="3" stroke-linecap="round"/>
<path d="M114.177 157C113.566 157.82 114.755 159.556 114.451 160.506C114.154 161.434 114.703 162.562 114.724 163.505C114.745 164.432 115.089 165.326 115.089 166.24C115.089 167.317 115.067 168.495 115.311 169.545C115.448 170.129 115.679 170.661 115.625 171.277C115.568 171.931 115.371 172.505 115.544 173.157C115.768 173.996 115.818 175.032 115.818 175.903C115.818 177.108 115.494 178.945 116 180" stroke="black" stroke-width="3" stroke-linecap="round"/>
<path d="M125.266 157C124.349 157.82 126.132 159.556 125.676 160.506C125.231 161.434 126.055 162.562 126.086 163.505C126.117 164.432 126.633 165.326 126.633 166.24C126.633 167.317 126.6 168.495 126.967 169.545C127.171 170.129 127.519 170.661 127.438 171.277C127.353 171.931 127.056 172.505 127.317 173.157C127.652 173.996 127.727 175.032 127.727 175.903C127.727 177.108 127.241 178.945 128 180" stroke="black" stroke-width="3" stroke-linecap="round"/>
<path d="M100.266 150C99.3494 151.033 101.132 153.223 100.676 154.421C100.231 155.591 101.055 157.013 101.086 158.202C101.117 159.371 101.633 160.498 101.633 161.651C101.633 163.009 101.6 164.494 101.967 165.818C102.171 166.554 102.519 167.224 102.438 168.002C102.353 168.826 102.056 169.55 102.317 170.372C102.652 171.43 102.727 172.736 102.727 173.834C102.727 175.353 102.241 177.669 103 179" stroke="black" stroke-width="3" stroke-linecap="round"/>
<path d="M89.2662 175C88.3494 175.214 90.1318 175.667 89.6763 175.915C89.2314 176.157 90.0548 176.451 90.0863 176.697C90.1174 176.939 90.6331 177.172 90.6331 177.41C90.6331 177.691 90.5999 177.999 90.9672 178.273C91.1715 178.425 91.5187 178.564 91.4381 178.725C91.3526 178.895 91.0562 179.045 91.3166 179.215C91.6519 179.434 91.7266 179.704 91.7266 179.931C91.7266 180.245 91.241 180.725 92 181" stroke="black" stroke-width="3" stroke-linecap="round"/>
<path d="M87.8783 149.5C87.0612 149.624 88.4776 150.413 88.0436 150.642C87.6198 150.866 88.2572 151.332 88.2352 151.628C88.2135 151.919 88.6031 152.268 88.5559 152.551C88.5002 152.884 88.4113 153.244 88.6674 153.62C88.8098 153.83 89.0758 154.043 88.9758 154.223C88.8698 154.413 88.5897 154.549 88.776 154.787C89.016 155.094 89.0257 155.425 88.9807 155.694C88.9184 156.067 88.4132 156.566 89 157" stroke="black" stroke-width="3" stroke-linecap="round"/>
<path d="M40.2662 151C39.3494 151.82 41.1318 153.556 40.6763 154.506C40.2314 155.434 41.0548 156.562 41.0863 157.505C41.1174 158.432 41.6331 159.326 41.6331 160.24C41.6331 161.317 41.5999 162.495 41.9672 163.545C42.1715 164.129 42.5187 164.661 42.4381 165.277C42.3526 165.931 42.0562 166.505 42.3166 167.157C42.6519 167.996 42.7266 169.032 42.7266 169.903C42.7266 171.108 42.241 172.945 43 174" stroke="black" stroke-width="3" stroke-linecap="round"/>
<path d="M28.2662 151C27.3494 151.82 29.1318 153.556 28.6763 154.506C28.2314 155.434 29.0548 156.562 29.0863 157.505C29.1174 158.432 29.6331 159.326 29.6331 160.24C29.6331 161.317 29.5999 162.495 29.9672 163.545C30.1715 164.129 30.5187 164.661 30.4381 165.277C30.3526 165.931 30.0562 166.505 30.3166 167.157C30.6519 167.996 30.7266 169.032 30.7266 169.903C30.7266 171.108 30.241 172.945 31 174" stroke="black" stroke-width="3" stroke-linecap="round"/>
<path d="M153 20C157.076 46.346 158.227 74.46 156.3 101.177C155.829 107.706 154.102 115.274 157.337 121.168C159.074 124.333 161.577 124.12 164.549 123.873C169.455 123.467 174.313 122.591 179.209 122.106C182.785 121.752 186.25 122.051 189.815 122.272C191.611 122.384 193.765 122.473 195 121.388" stroke="black" stroke-width="3" stroke-linecap="round"/>
<path d="M167 106.175C169.016 111.696 172.839 115.148 179.126 113.649C184.562 112.352 188.029 105.22 184.687 100.312C182.584 97.2244 178.299 96.232 174.972 97.6036C169.698 99.7778 169.491 105.109 168.206 109.877" stroke="black" stroke-width="3" stroke-linecap="round"/>
<path d="M167 85.1747C169.016 90.6956 172.839 94.1483 179.126 92.6487C184.562 91.3521 188.029 84.2201 184.687 79.312C182.584 76.2244 178.299 75.232 174.972 76.6036C169.698 78.7778 169.491 84.1093 168.206 88.8774" stroke="black" stroke-width="3" stroke-linecap="round"/>
<path d="M170 67C172.76 67.1104 170.035 67.9292 170.5 67" stroke="black" stroke-width="3" stroke-linecap="round"/>
<path d="M180 66.365C181.707 66.365 180.821 65.5437 180 66.365" stroke="black" stroke-width="3" stroke-linecap="round"/>
<path d="M163.5 151.5C162.158 157.674 162.042 168.189 166.722 173.389C172.191 179.465 181.205 169.288 183 164.5C185.954 156.622 183.3 145.835 173.722 146C166.434 146.126 165.928 151.968 165 158" stroke="black" stroke-width="3" stroke-linecap="round"/>
<path d="M171.287 147C173.158 147.216 170.774 157.895 170.623 159.788C170.51 161.216 170.023 162.938 168.667 163.879C167.639 164.592 165 164.566 165 165" stroke="black" stroke-width="3" stroke-linecap="round"/>
<path d="M175.739 147C174.202 150.517 173.695 154.728 174.174 158.667C174.661 162.664 179.282 165.53 182 167" stroke="black" stroke-width="3" stroke-linecap="round"/>
<path d="M72 137C72 152.819 71.1132 177.111 93.2222 177.111C116.308 177.111 119.635 147.103 114.556 130.111C110.575 116.795 94.1659 115.289 83.2222 121.222C74.5454 125.926 74.5482 135.485 73 144" stroke="black" stroke-width="3" stroke-linecap="round"/>
<path d="M93.0285 118C95.5679 112.845 92.4966 108.658 91 104" stroke="black" stroke-width="3" stroke-linecap="round"/>
<path d="M97 118C97 106.547 101.151 98.4296 105 88" stroke="black" stroke-width="3" stroke-linecap="round"/>
<path d="M93 179C95.2731 186.122 94 193.624 94 201" stroke="black" stroke-width="3" stroke-linecap="round"/>
<path d="M137 244C136.852 249.04 134.826 254.158 137 259" stroke="black" stroke-width="3" stroke-linecap="round"/>
<path d="M95.75 177.25C97.9861 178.244 100.577 178.849 102.889 179.583C108.1 181.238 113.291 182.784 118.667 183.806C123.589 184.741 128.533 185.601 133.472 186.444C138.859 187.365 144.36 188.38 149.847 187.889C156.182 187.322 161.901 185.308 166.486 180.861C169.364 178.07 173 174.923 173 170.75" stroke="black" stroke-width="3" stroke-linecap="round"/>
<path d="M173.25 170.75C176.49 168.32 178.629 165.008 180.5 161.5" stroke="black" stroke-width="3" stroke-linecap="round"/>
<path d="M174 170.5C173.003 166.313 171.431 162.422 169.75 158.5" stroke="black" stroke-width="3" stroke-linecap="round"/>
<path d="M131.479 218C134.217 222.54 132.531 229.548 131.984 234.455C131.714 236.877 131.332 239.303 131.106 241.727C130.795 245.077 134.95 251.751 131 254" stroke="#195A09" stroke-width="10" stroke-linecap="round"/>
<path d="M131.496 225C132.829 232.757 133.074 240.266 132.983 248.066C132.946 251.238 132.462 254.096 131 257" stroke="#195A09" stroke-width="10" stroke-linecap="round"/>
<path d="M109.5 158.75C110.265 158.368 111.435 158.902 112.042 159.354C112.783 159.906 113.324 160.801 113.819 161.569C114.583 162.754 114.33 163.886 114.181 165.208C113.975 167.023 113.991 168.834 114.097 170.653C114.205 172.498 114.133 174.647 114.986 176.333C115.886 178.111 117.266 179.639 118.139 181.417C118.93 183.026 119.868 184.345 120.278 186.125C120.703 187.97 121.622 189.101 122.903 190.444C123.6 191.176 124.458 191.579 125.243 192.187C126.257 192.973 126.648 194.113 127.125 195.25" stroke="#195A09" stroke-width="10" stroke-linecap="round"/>
<path d="M4.96858 166.615C9.83443 166.469 14.7283 166.635 19.5684 166.032C22.606 165.653 25.6198 165.765 28.6731 165.736C31.9149 165.704 35.1911 166.057 38.4174 165.752C41.3766 165.471 44.4559 165.961 47.4151 166.373C49.996 166.733 52.4731 166.703 55.0394 166.421C57.7649 166.122 60.5689 166.245 63.3082 166.237C64.2202 166.235 65.1042 166.115 66.0061 165.985C67.4541 165.776 68.8995 165.946 70.355 166.026C71.8706 166.109 73.5837 166.468 75.0318 166.402" stroke="black" stroke-width="3" stroke-linecap="round"/>
<path d="M5.0008 158.21C9.75341 158.068 14.5337 158.239 19.2606 157.642C22.2273 157.267 25.1712 157.382 28.1535 157.356C31.3199 157.328 34.5203 157.684 37.6712 157.382C40.5614 157.105 43.5696 157.597 46.4605 158.013C48.9818 158.375 51.4013 158.348 53.9077 158.069C56.5695 157.773 59.3084 157.898 61.984 157.894C62.8748 157.892 63.7382 157.773 64.619 157.644C66.0332 157.437 67.4451 157.609 68.8668 157.69C70.3474 157.775 72.021 158.136 73.4353 158.071" stroke="black" stroke-width="3" stroke-linecap="round"/>
<path d="M3.0008 149.135C7.75341 148.994 12.5337 149.165 17.2606 148.567C20.2273 148.192 23.1712 148.308 26.1535 148.281C29.3199 148.253 32.5203 148.61 35.6712 148.307C38.5614 148.03 41.5696 148.523 44.4605 148.938C46.9818 149.301 49.4013 149.274 51.9077 148.995C54.5695 148.698 57.3084 148.824 59.984 148.819C60.8748 148.818 61.7382 148.699 62.619 148.57C64.0332 148.363 65.4451 148.534 66.8668 148.616C68.3474 148.701 70.021 149.061 71.4353 148.997" stroke="black" stroke-width="3" stroke-linecap="round"/>
<path d="M117.375 145.5C117.392 145.378 117.433 145.467 117.5 145.5" stroke="black" stroke-width="3" stroke-linecap="round"/>
<path d="M117.5 146.375C122.502 146.744 127.514 146.946 132.5 147.5" stroke="black" stroke-width="3" stroke-linecap="round"/>
<path d="M131.5 147.75C132.246 149.428 132.553 151.357 132.826 153.16C133.167 155.402 133.855 157.569 134.222 159.806C134.615 162.193 135.022 164.589 135.299 166.993C135.518 168.902 135.488 170.825 135.688 172.736C135.807 173.881 135.943 175.007 136.222 176.125C136.441 177 136.802 177.818 136.931 178.715C137.102 179.913 137.213 181.12 137.375 182.319C137.412 182.594 137.72 184.157 137.25 184" stroke="black" stroke-width="3" stroke-linecap="round"/>
<path d="M99.0002 148.5C93.4522 148.5 89.0793 151.421 85.3057 155.194C82.2378 158.262 81.5071 163.342 80.8891 167.5C79.5717 176.362 78.4423 184.707 70.5002 190.222C66.584 192.942 62.8054 195.004 59.5002 198.5C55.3271 202.914 52.8116 209.963 51.7224 215.806C50.1598 224.187 49.4778 231.519 51.6113 239.889C52.4384 243.134 52.4171 246.523 53.5002 249.694C54.4477 252.469 54.2649 253.231 52.5002 255.5" stroke="#680E0E" stroke-width="10" stroke-linecap="round"/>
<path d="M95 151C101.066 149.97 106.811 149.737 111.667 154.028C114.71 156.717 116.667 162.721 116.778 166.722C116.918 171.762 116.718 175.617 119.806 180C122.82 184.278 126.57 187.988 129.611 192.222C133.854 198.13 132.883 205.583 134 212.444C135.152 219.518 134.555 226.34 135.222 233.389C135.702 238.455 137.9 244.612 136.111 249.639C134.976 252.827 131.718 256.098 128.5 256.5" stroke="#680E0E" stroke-width="10" stroke-linecap="round"/>
<path d="M105 198.5C103.802 200.192 104.742 198.583 104.611 202.667C104.395 209.396 103.758 213.839 97.1665 216.806C95.2829 217.653 87.9796 219.209 94.0554 222.5C97.9539 224.612 102.278 222.246 103.444 218.194C104.149 215.748 103.599 213.377 100.805 212.667C96.2969 211.52 91.8517 215.901 90.6665 219.833C89.5378 223.578 91.5546 226.474 94.9999 227.528C97.6933 228.352 96.8684 227.411 97.9999 227" stroke="#680E0E" stroke-width="10" stroke-linecap="round"/>
<path d="M107.5 159C102.219 158.823 97.5466 159.04 93.6111 163.056C91.0816 165.637 90.5957 169.186 89.4722 172.444C87.3461 178.61 84.755 185.256 81.9444 191.111C79.413 196.385 74.3851 197.935 70.1111 201.389C65.6944 204.958 61.1816 209.137 58.6111 214.278C53.8821 223.736 57.332 232.031 58.4722 241.722C58.8806 245.194 59.2412 248.885 60.1111 252.278C60.2843 252.953 61.9688 255.5 61 255.5" stroke="#680E0E" stroke-width="10" stroke-linecap="round"/>
<path d="M111 160.5C103.983 156.523 93.1474 154.981 88.4445 162.778C85.363 167.887 84.3331 175.261 83.5001 181.056C82.6247 187.145 80.8067 192.574 77.1667 197.611C72.9571 203.437 67.0202 208.035 63.2223 214.111C59.5253 220.026 60.2371 225.583 61.889 232C62.8458 235.717 63.7405 241.999 62.1667 245.611C61.2757 247.657 59.64 249.437 57.889 250.778C56.8125 251.602 54.8253 252.284 54.2223 253.611C53.039 256.214 57.3864 256 58.5001 256" stroke="#680E0E" stroke-width="10" stroke-linecap="round"/>
<path d="M112 163.5C108.52 161.76 101.212 166.164 98.7778 168.111C93.5766 172.272 94.2257 177.927 93.0556 183.778C90.9201 194.455 83.4415 201.712 75.9722 208.861C72.0624 212.603 68.1364 217.305 66.4167 222.528C64.8957 227.147 65.6364 232.184 65.6944 236.944C65.7425 240.886 64.9407 245.053 62.8889 248.472C61.8799 250.154 59.9284 254 58 254" stroke="#680E0E" stroke-width="10" stroke-linecap="round"/>
<path d="M114 165C112.469 171.15 111.442 173.102 112.111 179.667C112.913 187.542 116.486 194.681 118.778 202.139C120.94 209.175 121.026 216.538 121 223.833C120.977 230.286 120.726 236.787 119.194 243.083C118.074 247.688 116.257 250.382 113.5 254" stroke="#680E0E" stroke-width="10" stroke-linecap="round"/>
<path d="M115 172.5C110.201 175.872 105.932 180.538 103 185.611C98.8237 192.837 99.5563 201.469 95.0278 208.417C89.4362 216.996 78.9811 221.749 74.9722 231.5C72.8801 236.589 74.7596 242.769 71.1667 247.389C69.6059 249.396 67.4516 250.508 66.0278 252.694C65.3437 253.745 64.47 254.773 63.5 255.5" stroke="#680E0E" stroke-width="10" stroke-linecap="round"/>
<path d="M113.5 171C111.355 172.824 108.845 174.107 106.667 175.944C100.236 181.371 96.3032 187.669 93.1946 195.389C90.0348 203.236 86.5818 209.376 81.0001 215.778C76.098 221.4 71.5932 226.215 73.4446 234.194C74.2881 237.83 77.0072 242.866 74.5001 246" stroke="#680E0E" stroke-width="10" stroke-linecap="round"/>
<path d="M100 163C100.478 167.774 99.1947 171.951 101 176.778C104.172 185.256 112.112 189 118.722 194.25C126.496 200.423 128.838 210.866 128.222 220.278C127.975 224.052 127.712 227.771 127.75 231.556C127.794 235.897 126.991 240.409 127.445 244.722C127.907 249.116 129.244 253.707 130.472 257.944C130.905 259.438 132.425 261.444 130.5 260" stroke="#680E0E" stroke-width="10" stroke-linecap="round"/>
<path d="M111 165.5C106.723 174.56 104.546 183.29 108.361 193C110.449 198.315 114.037 202.509 114.445 208.444C114.737 212.706 113.814 217.051 113.972 221.361C114.155 226.33 113.088 230.975 112.833 235.889C112.447 243.352 114.353 251.621 117.278 258.444C117.782 259.621 118.314 260.944 119.389 261.722C121.271 263.085 121.79 262.509 123 261.5" stroke="#680E0E" stroke-width="10" stroke-linecap="round"/>
<path d="M109.5 199.5C110.403 201.858 110.251 200.843 109.5 204.722C108.029 212.326 105.75 219.728 104.667 227.417C103.996 232.173 104.138 236.917 105.111 241.611C106.204 246.878 108.308 253.993 112.5 257.667C114.107 259.075 121.627 261.247 123.278 258.667C125.049 255.899 120.978 249.033 119.5 246.5" stroke="#680E0E" stroke-width="10" stroke-linecap="round"/>
<path d="M92.5002 213.5C89.9163 219.868 83.7979 231.012 87.7224 237.972C90.3316 242.6 97.7783 242.724 101.834 245.639C105.092 247.981 111.307 258.562 104 259.167C98.581 259.615 93.123 256.498 87.8058 255.75C78.9691 254.507 70.1136 254.556 61.2224 254.556C59.4754 254.556 57.9078 255.052 56.2224 255.389C55.7404 255.485 61.1071 252.975 62.1113 252.722C67.8974 251.269 73.9278 251.297 79.778 250.194C84.8721 249.234 89.6246 247.943 94.8058 247.472C102.223 246.798 97.5835 235.924 92.1113 235.889C87.3228 235.858 84.6267 239.342 81.3891 242.167C79.6512 243.683 78.3349 244.658 78.0002 247" stroke="#680E0E" stroke-width="10" stroke-linecap="round"/>
<path d="M81.0002 226.5C78.5352 233.895 84.0656 242.162 90.3336 245.5C93.7189 247.303 97.3432 249.097 101 248" stroke="#680E0E" stroke-width="10" stroke-linecap="round"/>
<path d="M135.5 236.5C135.058 240.852 135.274 245.185 136 249.5C136.371 251.706 137.68 254.129 137.389 256.389C137.005 259.367 132.61 260.826 130.111 261.5C126.254 262.541 122.717 261.373 118.889 260.889C113.901 260.258 109.617 259.686 104.583 260.722C101.149 261.429 96.4405 260.574 92.9444 260.25C87.8546 259.779 82.667 259.5 77.5556 259.5C69.5441 259.5 61.5341 260.5 53.5 260.5" stroke="#680E0E" stroke-width="10" stroke-linecap="round"/>
<path d="M121.75 194.375C122.27 193.509 122.474 192.41 122.403 191.41C122.202 188.562 120.295 186.804 117.688 185.986C116.215 185.524 115.864 186.272 116.625 187.25" stroke="#680E0E" stroke-width="10" stroke-linecap="round"/>
<path d="M98.25 230.375C97.7195 236.211 97.2642 242.292 97.9306 248.139C98.1489 250.054 98.6811 251.731 99.5903 253.424C99.6687 253.57 100.045 254.275 100.194 254.493C100.426 254.831 100.336 254.367 100.375 254.25" stroke="#680E0E" stroke-width="10" stroke-linecap="round"/>
<path d="M118 179.5C126.657 182.81 138.117 184.838 141.222 195C145.388 208.632 144.587 222.869 141 236.5" stroke="#680E0E" stroke-width="10" stroke-linecap="round"/>
<path d="M131.5 195C137.925 207.704 138.768 222.041 140 236" stroke="#680E0E" stroke-width="10" stroke-linecap="round"/>
<path d="M141 202C142.716 215.884 142.336 230.048 142.5 244" stroke="#680E0E" stroke-width="10" stroke-linecap="round"/>
<path d="M144.5 212C145.146 223.34 145.667 234.665 146 246" stroke="#680E0E" stroke-width="10" stroke-linecap="round"/>
<path d="M146 221.5C147.293 229.581 146.419 238.382 146.5 246.5" stroke="#680E0E" stroke-width="10" stroke-linecap="round"/>
<path d="M144.5 232C146.217 237.722 145.915 243.797 146.778 249.667C146.875 250.327 146.922 251.707 147.694 252.222C148.05 252.459 148.259 251.884 148 252.333C146.492 254.947 145.942 258.669 143.5 260.5" stroke="#680E0E" stroke-width="10" stroke-linecap="round"/>
<path d="M143 251.5C141.908 252.979 140.933 254.445 140 256" stroke="#680E0E" stroke-width="10" stroke-linecap="round"/>
<path d="M115.5 173.5C119.286 169.829 122.863 177.898 124.611 180.611C126.165 183.022 128.19 184.881 129.5 187.5" stroke="#680E0E" stroke-width="10" stroke-linecap="round"/>
<path d="M139 233.5C138.82 235.516 135.1 259.127 141.667 256.5C142.699 256.087 142.731 255.835 141.417 255.806C138.822 255.748 136.466 256.342 134 257" stroke="#680E0E" stroke-width="10" stroke-linecap="round"/>
<path d="M140.223 75C139.867 68.0586 140.012 61.3145 140.147 54.3569C140.245 49.3457 140.504 44.2744 140.504 39.2612C140.504 35.3833 140.336 31.5362 140.471 27.6512C140.531 25.9377 140.621 24.3264 140.563 22.6057C140.501 20.7653 140.618 20.4208 141 22.0225" stroke="black" stroke-width="3" stroke-linecap="round"/>
<path d="M140.75 23C140.667 17.858 140.01 12.8341 139.361 7.75C139.237 6.77952 138.949 5.49335 139.153 4.51389C139.248 4.05634 139.371 3.86115 139.25 3.5" stroke="black" stroke-width="3" stroke-linecap="round"/>
<path d="M153.5 20.5C150.934 16.5079 147.262 13.2919 144.611 9.36112C143.605 7.86872 142.232 6.74426 141.236 5.25001C140.828 4.63831 139.762 2.7459 139 3.00001" stroke="black" stroke-width="3" stroke-linecap="round"/>
<path d="M193 22C190.217 18.6688 187.616 15.1709 184.777 11.8877C183.889 10.8608 183.014 9.91179 182.215 8.81139C181.385 7.66754 180.123 6.78788 179.379 5.62588C178.696 4.55895 177.605 3.58911 177.082 2.44037C176.842 1.91269 177.218 1.90708 177.082 2.17243" stroke="black" stroke-width="3" stroke-linecap="round"/>
<path d="M139.161 4C138.314 3.53147 141.03 3.34308 142.013 3.25926C144.32 3.06266 146.673 3.01453 148.989 2.93827C153.317 2.79574 157.671 2.92767 162.004 2.88889C165.723 2.85559 169.592 2.72564 173.278 2.22222C173.978 2.12658 176.84 2.2945 177 2" stroke="black" stroke-width="3" stroke-linecap="round"/>
<path d="M138.5 74.25C140.884 75.1309 141.818 77.9991 142.861 80.1111C144.021 82.46 144.923 84.9487 145.944 87.3611C147.877 91.924 149.041 96.8479 150.764 101.5C151.938 104.67 152.713 107.984 153.611 111.25C154.029 112.769 154.549 114.242 155 115.75C155.424 117.169 156.536 118.125 155.75 119.5" stroke="black" stroke-width="3" stroke-linecap="round"/>
<path d="M152.25 21.5C154.244 22.1249 156.167 21.8208 158.222 21.6667C160.891 21.4665 163.539 21.4792 166.208 21.6389C170.564 21.8995 174.836 22.324 179.167 22.75C182.338 23.062 185.373 22.8507 188.542 22.7639C190.617 22.707 192.673 23 194.75 23" stroke="black" stroke-width="3" stroke-linecap="round"/>
<path d="M192.25 21.75C193.213 24.9235 193.211 28.5073 193.25 31.8056C193.289 35.18 193.917 38.504 193.875 41.875C193.843 44.447 194.472 46.9471 194.472 49.5C194.472 52.2365 194.152 55.0159 194 57.75" stroke="black" stroke-width="3" stroke-linecap="round"/>
<path d="M194.5 55.75C193.035 57.0636 194.555 60.7803 194.736 62.4861C195.214 66.9911 195.165 71.5616 195.055 76.0833C194.898 82.56 196.639 88.8885 196.639 95.3333C196.639 97.7578 196.152 100.195 195.875 102.597C195.521 105.667 195.621 108.73 195.444 111.806C195.285 114.578 194.692 117.354 194.903 120.139C195.001 121.444 195.25 122.684 195.25 124" stroke="black" stroke-width="3" stroke-linecap="round"/>
<path d="M163 54.75C163.201 55.3391 163.265 57.516 163.806 57.8056C164.475 58.1641 165.528 58 166.25 58C167.841 58 169.344 58.5536 170.75 57.75" stroke="black" stroke-linecap="round"/>
<path d="M163.25 54.75C164.796 55.6779 167.465 55.25 169.25 55.25C170.013 55.25 170.276 55.3115 170.056 56.0556C169.814 56.8707 170.369 57.7131 170.5 58.5" stroke="black" stroke-linecap="round"/>
<path d="M177.75 55.25C177.937 55.6498 177.615 57.8338 178.111 57.8889C178.809 57.9665 179.49 57.7024 180.25 57.875C182.182 58.3142 183.579 57.9635 185.5 57.75" stroke="black" stroke-linecap="round"/>
<path d="M178 55.25C179.054 56.436 182.244 55.4002 183.764 55.875C184.222 56.0183 184.925 55.9013 185.083 56.5C185.256 57.1518 184.859 57.6628 185.25 58.25" stroke="black" stroke-linecap="round"/>
</svg>
