<svg width="214" height="236" viewBox="0 0 214 236" fill="none" xmlns="http://www.w3.org/2000/svg">
<path d="M21.2194 8.77916C21.5939 16.51 20.9701 24.2998 21.3442 32.0226C21.5561 36.3975 22.2638 40.674 22.4752 45.0386C22.6839 49.3454 22.3931 53.677 22.6035 58.0199C22.7798 61.6587 23.0163 65.1245 23.1236 68.7573C23.1603 69.9982 22.871 71.1744 22.6879 72.3937C22.3954 74.3427 22.9105 75.8392 23.0028 77.7459C23.1486 80.7557 22.8032 83.8341 23.0011 86.8956C23.2213 90.303 25.0001 93.2488 24.4784 96.7245" stroke="black" stroke-width="5" stroke-linecap="round"/>
<path d="M198.024 10.7269C198.399 18.4578 197.775 26.2476 198.149 33.9703C198.361 38.3452 199.069 42.6217 199.28 46.9864C199.489 51.2931 199.198 55.6248 199.408 59.9676C199.584 63.6065 199.821 67.0722 199.928 70.705C199.965 71.9459 199.676 73.1222 199.493 74.3415C199.2 76.2904 199.715 77.7869 199.808 79.6936C199.953 82.7035 199.608 85.7818 199.806 88.8433C200.026 92.2508 201.805 95.1965 201.283 98.6722" stroke="black" stroke-width="5" stroke-linecap="round"/>
<path d="M21.7562 9.53453C29.5031 9.15927 37.2124 7.99685 45.0202 8.68571C56.1966 9.67178 67.5807 8.82047 78.8158 9.3847C87.0944 9.80045 96.1194 10.084 104.317 8.78905C112.497 7.49688 120.539 7.15654 128.8 7.85335" stroke="black" stroke-width="5" stroke-linecap="round"/>
<path d="M125.79 7.71838C129.911 7.89263 134.292 8.49873 138.372 9.11124" stroke="black" stroke-width="5" stroke-linecap="round"/>
<path d="M135.875 9.23218C142.204 9.13673 148.333 8.80636 154.674 9.21148C156.572 9.33274 158.498 9.1375 160.395 9.0456C162.517 8.9428 164.84 9.48008 166.906 9.11954C172.299 8.17858 178.153 8.68598 183.67 8.41874C188.502 8.18469 193.158 9.46091 197.948 9.22886" stroke="black" stroke-width="5" stroke-linecap="round"/>
<path d="M25.0648 153.027C32.8117 152.652 40.521 151.489 48.3288 152.178C59.5052 153.164 70.8893 152.313 82.1244 152.877C90.403 153.293 99.428 153.577 107.625 152.282C115.805 150.989 123.848 150.649 132.109 151.346" stroke="black" stroke-width="5" stroke-linecap="round"/>
<path d="M129.099 151.211C133.22 151.385 137.6 151.991 141.681 152.604" stroke="black" stroke-width="5" stroke-linecap="round"/>
<path d="M139.184 152.725C145.513 152.629 151.642 152.299 157.983 152.704C159.881 152.825 161.807 152.63 163.704 152.538C165.826 152.435 168.149 152.973 170.215 152.612C175.607 151.671 181.462 152.179 186.978 151.911C191.81 151.677 196.466 152.953 201.257 152.721" stroke="black" stroke-width="5" stroke-linecap="round"/>
<path d="M118 142C119.276 144.042 118.688 146.947 118.778 149.25C118.931 153.173 118.375 156.208 117.5 160" stroke="black" stroke-width="3" stroke-linecap="round"/>
<path d="M116.5 167C116.801 168.353 116.408 168.775 116 170" stroke="black" stroke-width="3" stroke-linecap="round"/>
<path d="M117 157.5C116.361 160.694 114.287 166.469 115.5 169.5" stroke="black" stroke-width="3" stroke-linecap="round"/>
<path d="M30 148.623C46.0258 148.089 62.0552 149.468 78.1034 149.468C87.1882 149.468 95.8355 151.142 104.837 151.77C112.297 152.29 120.315 152.193 127.778 151.793C141.807 151.042 155.634 149.424 169.706 148.952C177.162 148.702 183.933 148.718 190.832 151.347C195.879 153.27 201.224 155.134 206 157.5" stroke="#680E0E" stroke-width="3" stroke-linecap="round"/>
<path d="M33 149C32.6298 148.352 28.5247 148.891 27.8056 149.278C26.4178 150.025 25.1198 150.88 24 152C21.2395 154.76 17.3124 159.158 16.6111 163.111C15.6114 168.746 15.4124 174.371 14.3889 180C13.1903 186.592 13.8776 193.169 11 199.5" stroke="#680E0E" stroke-width="3" stroke-linecap="round"/>
<path d="M10.5 200.5C7.97747 200.22 7.85288 187.754 7.25 185.222C6.73373 183.054 7.18007 180.324 6.25 178.278C5.7423 177.161 4.5 175.514 4.5 178" stroke="#680E0E" stroke-width="3" stroke-linecap="round"/>
<path d="M6 178L5 180" stroke="#680E0E" stroke-width="3" stroke-linecap="round"/>
<path d="M2.06739 178.5C1.81613 180.445 2.34839 182.802 2.34839 185.026C2.34839 188.753 2.34839 192.458 2.34839 196.236C2.34839 198.915 2.34839 201.594 2.34839 204.273C2.34839 204.965 3.28835 209.5 2.91039 209.5" stroke="#680E0E" stroke-width="3" stroke-linecap="round"/>
<path d="M2 181.5C2.67339 180.804 2.81467 178.49 3.06889 177.439C3.3232 176.388 5.89974 174.691 6.96889 174.334C8.9027 173.688 9.44858 173.033 11.36 173.962C12.4839 174.509 14.4494 175.233 15 176.245" stroke="#680E0E" stroke-width="3" stroke-linecap="round"/>
<path d="M3.27466 208.5C2.33014 208.625 4.11964 211.253 4.18352 211.86C4.45697 214.459 5.13798 217.093 5.52157 219.727C5.86334 222.073 6.90925 224.338 7.81898 226.5C8.54777 228.232 11 230.8 11 232.5" stroke="#680E0E" stroke-width="3" stroke-linecap="round"/>
<path d="M11 232.82C15.4048 232.82 19.9413 232.568 24.3368 232.399C30.407 232.166 36.4255 232.602 42.4328 232.951C53.6513 233.603 65.4835 233.641 76.7432 233.241C87.828 232.847 98.7687 232.152 109.836 231.689C115.195 231.465 120.478 231.41 125.829 231.689C130.267 231.921 134.506 232.583 139 232.583" stroke="#680E0E" stroke-width="3" stroke-linecap="round"/>
<path d="M197 153.5C197.214 154.473 201.058 154.923 201.95 155.036C203.928 155.286 205.069 157.564 206 159.246C209.186 165.003 208.221 172.767 208.725 179.356C209.007 183.051 209.778 186.651 210.075 190.364C210.364 193.986 211.521 197.976 210.725 201.6C209.544 206.976 211.01 212.039 210.05 217.5" stroke="#680E0E" stroke-width="3" stroke-linecap="round"/>
<path d="M130 231.5C135.193 231.57 140.844 232.097 146 232.5" stroke="#680E0E" stroke-width="3" stroke-linecap="round"/>
<path d="M138.418 232.009C136.417 232.47 142.235 232.397 142.961 232.411C145.661 232.465 148.28 232.493 150.997 232.486C155.969 232.473 160.903 232.803 165.905 232.802C167.849 232.802 170.508 232.795 172.394 232.967C173.921 233.107 175.502 232.932 177.035 233.036C180.557 233.274 184.003 233.666 187.606 233.639" stroke="#680E0E" stroke-width="3" stroke-linecap="round"/>
<path d="M211 212.5C209.926 213.533 210.074 216.749 210.018 218.053C209.941 219.818 210.509 221.35 210.509 223.023C210.509 224.489 209.842 231.171 207.561 231.4C203.011 231.858 198.734 233.5 194.08 233.5C190.387 233.5 186.693 233.5 183 233.5" stroke="#680E0E" stroke-width="3" stroke-linecap="round"/>
<path d="M82.5 190C75.0169 188.273 68.2841 195.357 71.4722 202.944C73.1344 206.9 78.8555 210.684 81.9444 205.722C84.5195 201.586 83.0785 193.584 79.2778 190.583C70.7046 183.815 57.1717 208.384 73.8889 206.889C80.9364 206.259 84.9305 198.635 81.6389 192.444C77.7944 185.215 68.7333 187.797 64.8333 193.556C61.6446 198.263 61.5228 206.217 68.3333 207.722C75.8324 209.379 81.2915 202.007 80.8611 195.25C80.3578 187.348 72.797 181.723 65 183.667C57.9489 185.424 47.116 196.015 51.6389 204.056C55.7496 211.363 65.6224 203.611 68.4722 199.5C72.5378 193.636 72.7824 182.002 63.0556 181.944C54.8297 181.896 46.6524 189.187 46.5278 197.472C46.4233 204.422 52.7696 206.144 58.0556 202.722C63.8231 198.989 68.5374 191.194 65.6667 184.222C62.0968 175.553 52.3598 177.454 48.7222 184.583C46.9876 187.983 44.8875 202.873 53.4444 199.611C60.6584 196.862 65.3081 180.881 57.8333 176.194C49.9446 171.248 43.535 185.687 42.0833 190.694C41.3274 193.302 40.2254 197.991 41.8056 200.861C44.1149 205.056 48.1086 197.009 48.4444 196.167C49.8173 192.724 50.454 188.286 50.1111 184.611C49.8663 181.987 48.4484 173.838 44.0278 174.222C38.1211 174.736 35.7485 187.708 36.3889 192.056C37.4204 199.057 42.1254 191.442 42.6667 188.944C43.2053 186.459 44.1192 168.482 37.0833 173.389C33.2976 176.029 30.6235 184.819 33.6111 188.833C34.7466 190.359 36.4606 189.597 37.3333 188.333C39.9191 184.589 39.8474 178.774 39.0278 174.556C37.6601 167.516 31.1951 162.07 26.8333 170.667C25.6895 172.921 25.0556 176.359 25.0556 178.889C25.0556 179.01 25.5165 185.256 27.4167 182.194C28.4253 180.569 30.2179 169.137 26.5 169.278C23.3977 169.396 23.7345 180.924 27.2778 181.389C30.9143 181.866 30.6413 173.949 29.6944 172.167C27.3937 167.836 24.5203 175.623 24.8333 177.611C25.6108 182.548 28.2256 174.961 28.2778 173.722C28.328 172.53 28.1552 165.851 25.5 166.333C23.7529 166.651 22.7797 170.103 22.4444 171.444C21.4408 175.459 24.214 172.585 24.5556 170.194C25.0067 167.036 23.5 164.369 23.5 161.278C23.5 160.551 23.6132 158.575 23.5 160.5C23.4004 162.194 22.6257 163.865 22.3889 165.611C22.1536 167.346 21.5 169.261 21.5 171C21.5 172.412 22.5 173.697 22.5 175.111C22.5 176.506 22 177.832 22 179.25C22 180.221 21.7409 181.89 22.4444 182.667C25.3441 185.868 34.4026 179.225 36.5833 177.917C40.0468 175.839 46.7786 170.34 51.25 171.028C52.3105 171.191 50.0644 172.863 49.2222 173.528C46.3282 175.812 42.5089 177.93 40.7222 181.333C35.9675 190.39 53.6491 189.539 57.3611 189.528C74.4374 189.476 91.4689 187.761 108.556 188.222C110.722 188.281 115.539 188.563 118 188.778C120.032 188.955 119.233 188.98 117.889 189C109.989 189.115 116.973 188.901 107.111 189.111C103.127 189.196 91.4015 188.86 95.1944 190.083C99.1513 191.36 103.441 191.176 107.583 191.528C119.094 192.506 130.63 193.204 142.167 193.778C145.238 193.931 154.409 194.636 151.389 194.056C144.712 192.772 137.162 192.867 130.417 192.694C125.405 192.566 120.858 192.519 115.917 193.167C113.084 193.538 108.755 194.742 114.333 196C117.417 196.695 124.076 197.408 127 197.667C130.745 197.998 141.881 198.962 138.278 197.889C136.272 197.291 128.011 196.876 127.722 196.861C120.608 196.493 112.553 195.76 105.5 197.333C103.165 197.854 103.166 198.824 105.5 199.5C113.714 201.88 123.266 201.684 131.694 201.778C133.584 201.799 142.466 201.939 145.611 201.111C145.924 201.029 146.387 200.447 146.111 200.278C145.068 199.636 143.78 199.512 142.583 199.25C132.188 196.974 118.24 195.269 107.944 198.833C106.183 199.443 105.034 200.661 107.278 201.778C112.567 204.41 120.004 204.563 125.722 205.028C127.626 205.182 129.535 205.306 131.444 205.333C132.133 205.343 133.013 205.626 133.5 205.139C133.854 204.785 132.553 204.78 132.056 204.722C128.67 204.331 123.649 204.328 120.444 204.444C119.894 204.464 99.8057 205.651 101.333 208.389C102.073 209.714 108.36 210.873 108.444 210.889C115.35 212.158 122.593 212.734 129.611 212.5C131.97 212.421 135.478 213.212 136.556 211.111C136.785 210.663 136.127 210.093 135.667 209.889C132.73 208.59 125.99 207.942 123.444 207.778C118.499 207.458 111.189 207.466 106.167 208.056C105.437 208.141 96.3873 209.584 102.556 211.361C109.929 213.486 118.813 212.881 126.306 211.861C128.189 211.605 132.581 211.681 131.694 210C130.252 207.266 117.195 207.793 115.778 207.778C110.546 207.72 103.44 208.025 98.1667 208.722C95.0941 209.128 89.8408 210.551 96.8333 210.806C98.6288 210.871 121.802 209.216 120.444 206.944C119.133 204.749 115.497 205.487 112.944 205.333C108.768 205.081 102.678 205.227 98.5556 205.556C96.2315 205.741 90.3061 206.403 87.6667 207.278C87.2871 207.404 86.495 207.801 86.7778 208.083C88.4772 209.783 91.5703 208.637 93.9722 208.556C98.4884 208.403 102.799 208.015 107.278 207.389C110.694 206.911 119.577 206.354 117.056 204C115.782 202.811 109.262 202.108 108.667 202.056C101.631 201.43 94.4461 201.763 87.4722 202.833C85.9125 203.073 84.3469 203.331 82.8333 203.778C82.3155 203.93 81.4014 204.073 81.4444 204.611C81.487 205.143 82.4139 205.113 82.9444 205.167C84.4647 205.319 86.0011 205.283 87.5278 205.222C92.3875 205.03 96.9121 204.499 101.694 203.528C105.107 202.834 114.08 200.403 111 198.778C109.171 197.813 102.939 197.906 101.611 197.944C95.6667 198.118 89.5639 198.78 83.7778 200.194C82.8533 200.42 81.8679 200.56 81.0556 201.056C80.8469 201.183 81.3954 201.479 81.6389 201.5C87.6996 202.03 94.3992 200.749 100.389 200.111C102.087 199.93 109.076 199.144 111.444 198.722C113.228 198.404 113.025 198.185 111.333 198.111C99.6803 197.602 87.1139 198.291 75.75 200.917C73.301 201.483 68.76 201.834 69.0278 204.333C69.3071 206.94 76.9422 206.682 78.3333 206.667C78.9357 206.66 89.6369 206.009 86.75 203.278C83.9628 200.641 78.1097 201.357 74.7778 201.722C68.1783 202.447 60.5503 204.17 55 208.056C54.2085 208.61 53.5177 209.325 55.0556 209.444C58.8698 209.74 63.1395 208.693 66.8333 207.944C69.5683 207.391 71.8423 206.835 74.5 206.083C75.3201 205.851 76.1473 205.635 76.9444 205.333C78.3947 204.785 77.0881 204.799 76.3889 204.833C67.5662 205.261 58.3362 206.805 49.8333 209.139C49.0312 209.359 33.306 214.202 38.0556 217.722C41.2171 220.065 62.1302 215.484 61.1111 211C60.4359 208.029 54.0574 207.145 51.8889 206.722C46.1602 205.607 40.0698 205.342 34.3889 206.861C30.4424 207.916 20.256 212.17 20.6389 217.722C20.7615 219.5 22.6578 219.58 24 219.25C29.1399 217.985 33.3079 213.198 34.1667 208C34.7975 204.182 32.355 199.583 28.75 198.056C25.0085 196.47 22.5743 201.085 21.5556 203.944C19.0288 211.037 27.6141 212.22 31.3333 207.611C35.2019 202.817 29.2809 191.912 22.8611 194.194C19.7674 195.294 18.1401 203.94 21 202.306C25.4297 199.774 19.6659 192.048 20.5278 188.278C21.1654 185.488 20.5 183.285 20.5 180.5C20.5 179.659 20 179.066 20 178.25C20 178.104 19.9444 183.707 19.9444 185.306C19.9444 187.881 19.5863 190.488 19.1111 193C18.7853 194.722 19.9897 196.249 19.6111 198C19.0971 200.377 17.8129 201.876 16.7222 204C15.3005 206.769 16.1286 205.514 17 203.111C17.2776 202.346 18.2278 196.357 18.2222 196.361C16.8332 197.353 16.7091 200.003 16.25 201.472C14.9567 205.611 13.1918 207.478 14.3889 212C14.6335 212.924 16.1939 218.85 15.3889 218C14.3267 216.879 9.98644 210.918 10.6111 209.222C11.0431 208.05 12.864 211.243 13 211.5C13.5224 212.487 15.2896 212.928 15.4722 213.75C15.645 214.528 15.4653 215.758 16.75 215.472C17.4943 215.307 18.3154 214.731 19 214.389C20.5272 213.625 19.2725 214.795 17.7778 214.278C14.5779 213.17 13.4628 209.361 12.5 206.472C12.114 205.314 11.5 204.571 11.5 203.306C11.5 202.763 11.2242 204.487 10.75 204.75C9.378 205.512 7.84875 196.194 7.52778 194.75C7.31362 193.786 8.69366 194.186 8.38889 193.5C7.88042 192.356 7.5 191.779 7.5 190.5C7.5 189.126 8.60183 187.472 8.11111 186C7.80442 185.08 10.2231 182.678 8.75 181.5C7.43849 180.451 10.9942 178.857 10.2778 180.111C8.03312 184.039 9.57106 190.087 9.97222 194.5C10.1772 196.755 10.6739 198.807 11.2222 201C11.6073 202.54 13.177 207.005 12.4167 205.611C11.9161 204.693 8.08063 199.357 8.72222 201.111C9.29238 202.67 9.89813 204.495 10.6111 206C11.552 207.986 11.046 210.787 12.2778 212.722C13.6827 214.93 12.3374 211.964 12 211.167C11.5971 210.214 9.86714 203.319 9.61111 205.111C9.38823 206.671 10.5035 208.415 11.2222 209.75C11.7859 210.797 11.4966 212.117 12 213.25C12.3908 214.129 12.5828 214.971 12.8889 215.889C13.7409 218.445 10.6601 210.856 10.5 208.167C10.4444 207.233 10.2069 201.757 9.77778 205.333C9.56501 207.106 10.2082 209.794 10.75 211.528C11.866 215.099 11.8969 218.549 14 221.889C15.3009 223.955 16.1283 226.547 15.3889 221.889C15.0273 219.611 14.4703 215.526 12.7778 213.833C12.1602 213.216 12 217.652 12 218C12 220.894 13.2638 222.968 14.3889 225.5C15.0211 226.923 15.5391 227.549 16.5 228.75C17.1592 229.574 22.139 229.325 19.7222 228.75C16.5488 227.994 15.3803 229.457 14.3889 226.111C13.0019 221.43 11.8372 216.942 10.0278 212.306C9.22324 210.244 8.78665 208.02 7.88889 206C7.45434 205.022 7.4787 207.181 7.61111 207.611C7.95257 208.721 10.881 213.754 9 212.5" stroke="#680E0E" stroke-width="10" stroke-linecap="round"/>
<path d="M26.9999 164C26.144 164 28.4395 163.07 29.1943 162.667C33.7886 160.211 38.5454 159.6 43.6943 159.278C58.533 158.35 73.1884 160.269 87.8888 161.889C99.6335 163.183 111.573 164 123.389 164C128.605 164 133.843 164.133 139.055 163.889C139.464 163.87 144.605 163.605 144 163" stroke="#680E0E" stroke-width="10" stroke-linecap="round"/>
<path d="M67.9998 174C75.0147 179.456 88.5658 180.208 96.8332 178.167C100.126 177.354 102.324 174.445 98.4998 172.222C93.3301 169.218 85.6477 169.788 80.9998 173.556C67.5408 184.466 98.1388 195.382 103.167 183.722C105.745 177.743 99.4253 174.647 94.5554 174.944C90.5938 175.187 71.4692 181.014 79.6665 187.75C83.3948 190.814 91.3256 190.999 92.5832 185.194C94.1939 177.76 84.5877 175.201 79.2221 175.25C75.8841 175.281 62.6587 177.949 67.9443 184.306C71.1769 188.193 78.4177 187.394 79.3332 181.944C80.432 175.404 73.4549 172.069 67.9998 172.694C64.681 173.075 57.2503 177.189 61.8887 181.306C65.8217 184.796 74.3855 182.956 76.861 178.444C80.4064 171.983 70.039 166.307 65.111 170.389C61.6953 173.218 60.7558 180.481 66.2221 181.722C71.0088 182.809 76.8211 178.627 74.5554 173.389C72.5905 168.846 65.4627 164.424 60.7221 167.667C56.2275 170.741 58.1594 177.071 62.7776 178.667C63.9399 179.068 68.1782 179.685 68.4998 177C68.8466 174.105 64.8203 171.405 62.8332 170.833C59.6231 169.909 55.9466 170.75 54.0554 173.722C52.6861 175.874 53.0912 179.156 55.7221 180.222C61.3615 182.508 65.9671 174.936 61.3887 170.944C55.9609 166.212 45.8992 175.461 50.7776 179.806C54.017 182.691 60.1469 177.328 59.0554 173.667C57.6689 169.015 48.7229 167.822 47.1387 172.944C45.8305 177.174 51.6063 179.678 54.1943 176.5C57.2888 172.7 52.9161 167.826 48.8887 167.667C43.0425 167.435 39.9491 173.956 41.5832 178.944C42.7748 182.582 47.7428 183.863 47.5832 178.861C47.3944 172.945 40.8702 173.302 37.4165 176.167C34.509 178.578 32.8203 181.579 31.7498 185.167C31.1578 187.151 29.7855 194.33 33.7776 195C38.6987 195.826 35.7231 185.94 34.611 184.5C31.3411 180.267 26.5528 183.226 25.111 187.278C24.736 188.331 24.1325 191.671 25.5554 192.722C26.73 193.59 28.2258 190.79 28.3332 189.333C28.5058 186.991 26.4171 175.187 21.4998 178.111C20.0017 179.002 20.0105 183.251 21.111 181.667C21.7532 180.742 23.1473 176.948 20.9998 176.667C19.7737 176.506 18.6893 178.014 18.8332 179.111C19.1131 181.246 22.3108 182.996 23.5276 184.528C26.3965 188.139 27.5139 192.176 27.861 196.722C28.0234 198.851 26.9766 206.091 31.1665 205.056C33.1838 204.557 35.3002 202.891 36.8054 201.611C37.6491 200.894 39.8538 199.006 38.7498 198.917C34.8839 198.603 28.4588 204.074 26.6943 207.111C22.6495 214.073 34.5441 210.847 36.6387 210.083C41.6362 208.261 48.211 202.908 53.7776 203.306C57.266 203.555 51.5032 210.073 51.0554 211C47.849 217.642 63.5382 212.174 65.4443 211.5C66.2235 211.224 70.0016 209.748 71.111 208.889C71.7158 208.421 69.5618 208.934 68.8332 209.167C63.1212 210.99 56.4516 213.014 51.4443 216.389C51.2133 216.545 50.8631 217.126 51.1387 217.167C52.1275 217.311 53.1362 216.998 54.111 216.778C58.7517 215.732 65.6093 213.505 69.8887 212.222C83.4623 208.154 96.8212 204.469 111.055 203.833C116.155 203.606 122.346 204.903 127.389 203.667C130.044 203.015 132.729 201.424 135.333 200.556C140.881 198.706 146.485 196.996 152.222 195.833C153.401 195.595 156.979 195.279 155.778 195.222C151.792 195.032 146.851 195.971 143 196.333C141.861 196.44 121.57 197.774 122 200.139C122.53 203.054 139.322 200.615 140.917 200.444C146.501 199.849 146.198 199.757 151.222 199.139C152.438 198.989 155.062 197.676 154.889 198.889C154.706 200.166 144.106 200.706 142.667 201C140.138 201.517 147.873 201.021 150.389 200.444C152.249 200.018 160.574 197.283 153.833 195.833C146.778 194.316 138.356 195.007 131.555 197.333C129.85 197.917 126.689 198.568 127.055 200.333C127.553 202.733 138.52 201.026 138.944 200.972C140.271 200.805 154.918 198.733 149.639 193.806C145.527 189.968 135.8 191.521 131.778 194.722C125.355 199.834 140.949 202.076 142.667 202.083C148.044 202.107 159.729 200.129 159.555 192.5C159.391 185.286 148.747 182.568 143.305 182.5C136.033 182.409 123.414 184.825 118.583 191.028C114.269 196.566 130.474 195.912 131.667 195.778C135.918 195.299 139.721 194.347 143.639 192.639C143.922 192.515 151.826 188.933 147.278 187.167C141.795 185.038 133.09 188.136 128.389 190.833C122.29 194.333 123.518 199.303 130 201.278C136.579 203.283 145.27 201.621 150.111 196.5C154.761 191.58 149.689 186.746 144.667 185.444C138.432 183.83 129.346 186.318 125.389 191.667C120.174 198.715 136.723 199.747 139.389 199.778C145.983 199.853 157.284 198.615 161.167 192.056C165.72 184.362 144.536 183.714 142.167 183.722C139.88 183.73 118.203 184.429 119.917 190.639C120.697 193.469 127.762 194.368 128.778 194.528C134.029 195.355 139.027 195.47 144.25 194.333C148.233 193.466 151.632 192.192 154.111 188.833C155.853 186.473 156.509 183.897 153.278 182.25C148.919 180.028 141.752 180.858 137.528 181.389C133.397 181.908 126.124 183.104 122.194 185.694C119.21 187.661 121.044 188.981 123.305 189.861C126.642 191.16 130.479 191.146 133.944 190.639C136.218 190.306 151.22 185.84 145.028 180.722C139.07 175.798 126.592 179.115 120.972 182.861C118.866 184.265 115.892 186.733 117.5 189.806C120.045 194.669 129.01 193.361 132.944 192.333C137.148 191.235 149.748 185.394 143 179.167C137.082 173.706 126.405 174.909 119.944 178.389C116.73 180.12 109.635 186.764 117.778 187.5C124.972 188.15 134.631 186.043 140.389 181.5C144.478 178.274 142.883 174.182 138.333 172.778C132.277 170.909 125.224 173.232 119.778 175.833C116.785 177.263 109.465 180.854 109.222 185.056C108.922 190.244 123.274 185.344 124.75 184.806C127.069 183.96 135.887 180.839 132.778 176.611C129.693 172.415 121.614 172.404 117.139 172.944C113.548 173.379 104.847 175.506 106 181C106.886 185.221 113.255 184.539 116.139 183.722C119.105 182.882 124.101 180.465 123.889 176.639C123.636 172.087 116.011 173.174 113.389 173.5C106.649 174.337 99.7887 176.013 93.3332 178.111C85.744 180.578 98.5473 177.791 99.8332 177.278C102.873 176.064 107.548 172.942 101.444 171.667C96.4956 170.632 89.6159 170.93 85.0554 173.333C79.61 176.203 89.6793 175.93 90.2776 175.833C91.3292 175.664 103.542 173.392 100.444 169.889C95.4513 164.243 70.3784 171.167 77.8332 170.056C80.8477 169.606 85.2157 168.975 87.7221 167.111C88.8972 166.237 86.8152 165.961 86.6665 165.944C84.4427 165.703 81.2506 165.955 79.3887 167.361C76.5043 169.539 85.9717 170.91 89.5832 171.056C103.273 171.607 117.083 170.745 130.75 170C139.622 169.516 148.482 168.883 157.361 168.528C159.237 168.453 164.801 168.06 162.944 167.778C158.735 167.137 154.129 167.522 149.917 167.833C149.216 167.885 138.431 168.979 146.139 169.694C152.782 170.311 159.984 170.827 166.639 170.139C167.955 170.003 168.593 169.754 167.028 169.25C163.779 168.204 159.971 168.222 156.611 168.222C156.389 168.222 146.467 169.22 148.5 169.778C152.564 170.893 158.217 170.394 162.222 169.278C167.313 167.859 160.983 166.128 159.444 165.944C152.693 165.137 142.875 165.015 136.667 168.25C135.087 169.073 135.353 169.626 136.944 170.111C139.323 170.836 142.951 170.823 145.222 170.778C151.831 170.645 159.522 170.155 165.555 167.139C166.459 166.687 167.771 165.862 165.833 165.806C164.011 165.753 160.508 166.486 158.972 166.833C157.411 167.187 153.214 167.63 154.5 168.583C157.337 170.688 166.783 168.952 169.778 168.778C170.797 168.718 180.881 166.183 178.944 170C176.929 173.973 174.937 178.569 177 183.056C179.046 187.506 184.876 187.474 188.833 186.222C189.734 185.937 196.846 182.298 194.222 180.111C190.534 177.037 182.018 193.226 190.389 190.778C194.442 189.592 194.674 184.724 192.889 181.611C189.989 176.556 183.519 177.63 183.333 183.75C183.24 186.81 186.302 191.663 189.861 191.278C193.843 190.847 194.225 184.464 193.25 181.722C189.096 170.047 171.846 181.87 178.611 190.278C182.074 194.582 188.564 192.802 191.305 188.722C193.471 185.5 194.316 176.624 188.444 176.306C184.014 176.065 171.194 182.259 174.361 188.389C177.626 194.707 193.233 192.439 191.722 184.111C189.547 172.122 160.737 182.108 163.278 192.778C165.779 203.282 183.319 196.517 180.222 186.667C177.297 177.363 155.572 179.249 160 189.111C162.311 194.259 171.307 193.748 175.333 191.667C182.861 187.776 177.932 178.468 172.139 175.861C166.851 173.482 158.436 174.705 155.055 179.861C151.064 185.948 158.43 191.503 163.611 192.778C168.684 194.026 178.907 193.369 181.805 187.917C182.877 185.901 181.017 185.083 179.444 184.917C176.779 184.635 174.418 185.591 172.528 187.5C167.883 192.188 169.02 199.732 173.333 204.167C177.365 208.312 183.32 208.651 188.472 206.667C190.577 205.856 192.568 204.757 194.028 203C194.097 202.916 195.532 200.906 193.861 201.333C189.997 202.322 186.668 209.649 187.722 213.278C189.113 218.068 195.289 212.804 196.5 211C198.984 207.299 198.956 201.292 193.278 200.944C188.87 200.675 184.065 204.255 182 207.944C179.824 211.832 184.558 212.317 187.167 211.389C190.537 210.19 193.394 205.61 189.389 203C184.191 199.613 175.336 203.685 171.278 207.111C166.88 210.823 168.375 216.236 174.167 216.944C179.176 217.557 185.943 211.053 183.361 205.889C180.771 200.709 171.082 204.04 167.5 205.417C165.021 206.369 153.754 211.546 160.055 215.611C164.163 218.261 171.806 217.65 175.667 214.778C179.891 211.634 174.814 208.385 171.583 208.361C166.44 208.323 160.013 211.34 156.972 215.556C153.874 219.849 160.348 219.423 162.583 218.944C164.063 218.627 171.436 216.897 170.972 214.111C170.305 210.108 152.71 212.904 150.667 213.278C150.549 213.299 135.46 217.327 141.055 220.389C145.071 222.587 152.212 220.335 155.389 217.556C159.536 213.927 155.461 211.749 151.722 211.667C146.787 211.559 141.202 212.702 136.667 214.667C136.127 214.9 135.087 215.505 136.444 215.333C137.18 215.24 141.249 214.3 141.611 214.222C144.865 213.526 143.962 213.739 146.833 213.222C147.694 213.067 147.738 213.025 146.222 213.222C141.005 213.9 135.432 214.649 130.5 216.556C128.431 217.355 130.019 217.474 131.111 217.444C134.572 217.352 138.444 216.876 141.75 215.806C143.911 215.105 142.025 214.976 140.944 214.944C137.981 214.857 134.626 215.243 131.75 215.694C128.358 216.227 125.548 216.827 122.333 217.917C121.332 218.256 118.578 219.042 119.555 219.444C121.191 220.118 126.33 217.814 127.194 216.361C127.644 215.605 125.795 215.074 124.917 215.028C121.393 214.844 117.728 215.763 114.5 217.111C111.109 218.527 110.331 219.976 114.722 219.056C115.391 218.915 123.588 216.45 121.889 216.222C116.451 215.494 110.124 216.74 104.833 217.889C97.811 219.414 110.317 218.754 109.75 216.611C108.949 213.586 96.4794 216.274 94.5276 216.917C92.2885 217.654 93.8345 217.807 94.8054 217.667C96.1483 217.472 98.346 216.839 99.4721 216C102.663 213.622 91.4224 214.678 91.111 214.75C88.5063 215.356 83.438 218.448 89.5554 218.667C90.3097 218.694 101.438 217.184 100.611 215.917C98.9305 213.34 87.8192 216.661 85.7498 217.306C78.7716 219.48 84.4238 220.23 87.8887 220.028C92.3831 219.765 105.567 216.607 101.167 217.556C96.7272 218.512 92.502 220.034 88.2776 221.667C86.1906 222.474 83.3033 223.819 80.9998 222.889C79.3 222.202 84.6121 222.05 86.4443 222.111C86.5776 222.116 94.6107 222.587 91.7221 223C88.1047 223.517 84.4141 223.547 80.7776 223.889C80.3433 223.93 83.8373 223.705 84.6665 223.278C86.1311 222.523 76.2638 222.15 76.111 222.167C71.6825 222.659 59.0784 227.409 63.3054 226C66.3 225.002 69.2462 223.825 72.2498 222.833C76.3421 221.482 76.9742 221.074 71.861 221.333C66.7453 221.593 61.541 221.901 56.4998 222.861C53.1373 223.502 63.2374 221.619 66.5554 220.778C68.1137 220.383 71.0107 220.799 71.111 219.194C71.2051 217.688 68.0788 219.047 66.5832 219.25C61.4704 219.946 55.6252 220.848 50.861 222.944C47.8269 224.279 57.3228 221.458 60.5276 220.611C68.9319 218.391 52.5912 221.795 51.9998 221.944C49.6279 222.545 45.4423 223.714 42.9998 224.722C41.0151 225.542 42.2126 225.526 43.3887 225.333C45.2674 225.026 54.0009 223.957 54.7776 221.833C55.0464 221.099 43.7881 222.862 43.2221 223C41.6291 223.387 37.099 225.104 38.4443 224.167C45.3631 219.348 34.1897 223.072 31.7776 224.278C24.3228 228.005 33.9813 222.989 28.0832 224.528C23.0129 225.85 30.9625 222.722 29.4721 222.722C28.087 222.722 24.5571 226 27.2498 226C28.9221 226 29.9512 226.6 31.4998 226.944C32.9256 227.261 34.1376 226.643 35.4998 226.5C36.547 226.39 37.2367 225.5 38.3887 225.5C39.7034 225.5 41.6269 225.763 42.8887 226.111C45.7489 226.9 47.6167 226.836 50.5276 226.472C56.6768 225.704 62.8615 225.266 68.9998 224.389C75.7046 223.431 82.1932 223.5 88.9998 223.5C100.346 223.5 113.023 226.244 124 223.5" stroke="#680E0E" stroke-width="10" stroke-linecap="round"/>
<path d="M181.5 211.5C180.49 208.326 172.591 207.338 170.028 206.972C162.313 205.87 152.794 206.398 145.444 209.278C139.832 211.477 149.133 211.381 150.333 211.167C154.173 210.482 165.096 206.458 158.222 201.111C154.253 198.024 147.669 201.034 144.472 203.889C142.331 205.801 144.2 206.351 146.389 206.333C150.966 206.297 156.223 205.467 160.333 203.361C167.13 199.878 159.376 197.162 155.611 197.667C153.915 197.894 149.77 198.765 149 200.778C148.262 202.708 153.319 200.565 155.056 199.444C158.879 196.977 168.793 187.928 163.167 182.778C160.534 180.367 155.563 181.206 152.444 181.389C149.105 181.585 145.389 181.645 142.111 182.444C141.67 182.552 143.032 182.525 143.472 182.417C147.312 181.468 151.292 179.841 154.5 177.5C155.679 176.64 159.43 173.216 155.528 172.722C152.365 172.322 148.416 173.589 145.556 174.833C139.453 177.489 158.791 172.891 165.111 170.806C168.193 169.789 172.165 167.483 175.556 167.389C177.429 167.337 179.239 168.804 180.722 169.722C186.126 173.068 189.844 177.008 192.75 182.694C193.883 184.911 194.966 187.123 196 189.389C196.992 191.564 197.795 195.618 199.722 197.167C202.328 199.262 201.694 192.68 201.639 192.083C201.212 187.486 199.83 183.04 200.028 178.389C200.044 178.017 200.399 173.206 201.222 174.722C202.802 177.633 203.295 180.599 204.5 183.611C205.932 187.19 206.726 191.298 207.389 195.111C207.744 197.153 207.5 199.4 207.5 201.472C207.5 203.7 208.333 206.007 208.528 208.25C208.788 211.237 208 213.684 208 216.722C208 217.874 208.5 218.861 208.5 220C208.5 221.544 207.78 221.616 207.528 222.75C207.183 224.301 207.143 225.923 205.222 226.472C203.376 227 201.32 228 199.389 228C196.557 228 193.885 229 191 229C189.657 229 188.315 229 186.972 229C185.849 229 184.533 228.886 183.472 228.5C182.638 228.197 185.146 227.907 186 227.667C188.898 226.852 191.799 225.987 194.528 224.694C196.172 223.916 200.475 221.882 200.778 219.611C200.954 218.291 196.894 219.618 196.611 219.722C194.401 220.534 191.57 221.801 189.806 223.389C188.978 224.134 190.641 223.923 190.833 223.889C192.691 223.56 194.286 222.547 195.694 221.333C197.828 219.495 200.365 216.492 200.278 213.444C200.197 210.625 194.471 213.764 193.556 214.222C189.053 216.473 185.35 219.438 181.444 222.556C179.873 223.81 178.362 224.872 176.5 224.5" stroke="#680E0E" stroke-width="10" stroke-linecap="round"/>
<path d="M185.5 224.5C180.251 226.18 173.772 224.803 168.278 225.75C163.26 226.615 158.262 224 153.25 224C149.153 224 145.123 223.363 141 223.528C136.573 223.705 132.127 224.281 127.722 224.75C123.811 225.166 119.869 224.737 115.972 225.25C112.816 225.665 109.682 226 106.5 226C102.569 226 98.8885 228 94.9998 228C92.1453 228 89.4766 228.5 86.6109 228.5C85.3062 228.5 84.1504 227.951 82.8887 228C81.0396 228.071 79.5616 229.608 77.9998 230.389C77.8594 230.459 71.4238 228.924 72.9998 230.5" stroke="#680E0E" stroke-width="10" stroke-linecap="round"/>
<path d="M83.5 206C81.5133 210.47 76.1388 214.016 72.3889 216.833C68.8372 219.501 65.0777 221.321 61 223" stroke="#680E0E" stroke-width="10" stroke-linecap="round"/>
<path d="M77.5002 224C73.9488 224.592 70.5626 227.076 67.0002 227.472C64.7792 227.719 62.1686 227.076 59.889 227C53.4977 226.787 47.346 226.264 41.1113 228.111C37.8744 229.07 41.332 228.5 42.7779 228.5C45.9933 228.5 49.2302 229.327 52.389 229.889C54.3827 230.243 56.5555 229.959 58.5002 229.5C62.4621 228.565 66.295 228.718 70.3057 228.194C74.7151 227.619 79.0142 226.529 83.3335 225.528C89.1862 224.171 94.4479 223.38 100 221" stroke="#680E0E" stroke-width="10" stroke-linecap="round"/>
<path d="M183 227C183.523 229.354 178.887 229 176.889 229C174.963 229 173.037 229 171.111 229C168.595 229 166.132 229.837 163.611 229.389C161.098 228.942 158.518 227.57 156 227.5C153.102 227.42 150.339 228.258 147.389 227.889C143.341 227.383 139.479 227 135.389 227C132.232 227 128.725 227.419 125.611 226.889C123.829 226.586 120.524 227.036 119.5 225.5" stroke="#680E0E" stroke-width="10" stroke-linecap="round"/>
<path d="M197.5 188.5C197.227 188.5 197.53 178.512 197.389 177.111C197.143 174.679 195.552 171.727 193.778 170C191.289 167.579 187.284 168.471 185.5 171.278C181.277 177.921 187.741 184.908 194.889 182.167C196.801 181.433 196.675 179.297 195.611 180.278C193.695 182.044 194.624 186.03 195 188.167C195.891 193.235 198.011 198.015 198.778 203.111C199.184 205.813 198.522 208.643 201.111 210.389C202.604 211.396 204.228 213.266 204.778 210.278C205.731 205.096 202.879 198.033 200.611 193.556C199.005 190.384 196.228 187.272 196.611 183.5C196.781 181.83 196.74 179.52 197.5 178C197.859 177.282 199.871 175.229 200 176.944C200.053 177.649 201.541 184.933 202.611 183.944C204.807 181.917 202.361 177.484 201.722 175.333C201.055 173.084 200.126 170.337 200 168C199.985 167.73 199.492 164.698 199.611 164.722C201.181 165.036 201.405 168.867 201.611 170C201.951 171.871 203.778 178.853 203.778 173C203.778 166.818 200.109 160.027 194.5 157.222C190.719 155.332 184.953 155.129 180.833 155C178.493 154.927 176.235 153.822 173.889 154.111C171.017 154.465 168.417 154.967 165.5 155C158.667 155.077 151.73 156.429 144.889 156.889C135.784 157.5 126.606 158.536 117.5 158" stroke="#680E0E" stroke-width="10" stroke-linecap="round"/>
<path d="M194 170C184.543 165.272 175.571 162.907 164.861 164.222C163.925 164.337 157.138 165.478 159.944 164.389C163.558 162.987 166.283 161.179 170.278 161.028C174.535 160.867 178.805 161.637 183 162.278C186.094 162.75 191.032 162.973 193.278 165.611C196.455 169.345 197.032 173.924 198.028 178.528C198.983 182.947 200.544 187.071 201.778 191.389C202.338 193.349 203.09 195.605 203.389 197.611C204.144 202.68 194.781 204.88 191.583 205.333C185.471 206.2 179.008 205.781 172.861 205.694C163.522 205.564 154.688 204.47 145.833 201.389C138.864 198.964 131.995 195.809 125.611 192.111C118.742 188.132 113.142 182.509 106.056 178.861C89.1726 170.17 68.8927 162.289 49.5556 165.111C46.6504 165.535 44.02 166.511 41.2778 167.5C37.7668 168.766 33.7119 169.411 30.4722 171.306C26.572 173.587 26.8938 179.562 26.5 183.5" stroke="#680E0E" stroke-width="10" stroke-linecap="round"/>
<path d="M114 164.5C115.802 164.275 110.338 160.254 109.278 160.111C104.646 159.487 99.2959 159.556 94.6109 159.5C88.1127 159.422 81.8707 157.61 75.3887 157.111C70.5492 156.739 66.1973 158 61.472 158C56.6925 158 52.0237 156.556 47.2776 156.556C43.6926 156.556 40.0704 156.556 36.4998 156.556C34.0054 156.556 28.8175 156.724 26.7498 158.306C22.7733 161.346 28.2144 165.215 30.4998 167.5" stroke="#680E0E" stroke-width="10" stroke-linecap="round"/>
<path d="M27 165C24.9091 164.62 24.5 162.813 24.5 161C24.5 159.636 25.9478 159.246 26.7222 158.25C27.3277 157.471 26.9691 156.207 27.5 155.278C27.9923 154.416 29.6554 154.547 30.5 154.5C35.9522 154.197 41.4178 154.5 47 154.5C53.2571 154.5 59.4166 153.188 65.6111 152.389C69.7482 151.855 75.0437 152.162 79.25 152.528C81.2657 152.703 83.2523 153.816 85.25 154.25C87.945 154.836 90.6688 155.179 93.3889 155.611C96.844 156.16 100.275 156.754 103.75 157.25C106.886 157.698 110.943 158.437 114 158" stroke="#680E0E" stroke-width="10" stroke-linecap="round"/>
<path d="M6.99978 182.5C5.72985 181.569 6.34567 177.027 6.02756 175.278C5.83301 174.208 6.16316 175.265 6.33311 175.667C7.07946 177.431 7.95435 180.005 9.49978 181.278C11.2189 182.694 8.08551 172.513 8.74978 174.639C9.14749 175.912 8.86029 177.531 9.722 178.639C10.622 179.796 8.24823 176.09 7.722 174.722C7.05091 172.977 7.1817 174.078 7.61089 175.222C8.58769 177.827 9.55301 177.248 8.222 175.056C7.17224 173.327 6.86955 172.048 5.88867 174.5C4.72691 177.404 8.49978 181.114 8.49978 184" stroke="#680E0E" stroke-width="10" stroke-linecap="round"/>
<path d="M13.0002 181.5C12.6954 178.757 11.785 175.217 10.778 172.611C10.495 171.879 8.34251 168.79 10.0002 171" stroke="#680E0E" stroke-width="10" stroke-linecap="round"/>
<path d="M89.0001 23C77.5774 19.9763 66.3099 19.7527 54.7223 18.2222C51.066 17.7393 44.5211 15.0854 41.3334 17.8333C39.3264 19.5635 39.5317 22.7281 39.389 25.1111C39.0396 30.9454 39.1681 36.7784 38.889 42.6111C38.7719 45.0581 38.701 51.984 37.5279 49.8333C36.2833 47.5515 36.3943 42.8839 35.889 40.3333C34.9602 35.6451 34.2892 31.0192 34.0001 26.25C33.8719 24.134 33.5726 23.2801 32.2779 21.75C30.8285 20.0371 28.7779 13.7562 28.7779 16C28.7779 18.5472 29.1872 21.2123 29.389 23.7778C29.7114 27.877 27.9941 31.8384 28.2779 36C28.5416 39.8676 28.3039 43.7153 29.2501 47.5C30.2005 51.3014 30.9568 55.8794 31.0001 59.7778C31.0452 63.8318 30.7779 67.9386 30.7779 72C30.7779 75.4706 29.2869 78.7282 29.5279 82.2222C29.6793 84.4171 30.1719 86.8052 29.9723 89C29.7047 91.9442 30.4059 93.3659 29.0001 89.5" stroke="black" stroke-width="10" stroke-linecap="round"/>
<path d="M33.5001 26.5C29.5186 25.9692 28.4787 35.9994 28.2223 38.1111C27.766 41.8695 27.5721 45.7713 27.8057 49.5556C27.8379 50.0771 27.8226 50.6196 28.0001 51.1111C28.3403 52.0531 28.196 49.1123 28.1668 48.1111C27.9549 40.8483 26.3539 32.6649 28.5001 25.5556C29.7554 21.3976 28.655 27.3492 28.2501 28.5C27.2898 31.2294 27.0001 33.8466 27.0001 29.1389C27.0001 27.5556 27.0001 25.9722 27.0001 24.3889C27.0001 22.369 26.9328 28.4305 26.7779 30.4445C26.2859 36.8403 25.3276 43.0187 26.1112 49.4445C26.711 54.3624 27.4924 59.0236 27.7779 63.9722C27.913 66.3145 28.2011 68.6469 27.7223 70.9722C27.2978 73.0344 26.6628 75.1476 27.1112 77.2778C27.2002 77.7006 27.5362 78.7149 28.0001 78.8889C28.8065 79.1913 29.6316 65.4838 29.639 65.1945C29.8578 56.6166 28.0228 47.3887 30.5001 39.0278C31.4227 35.9141 32.8449 33.0615 34.389 30.2222C38.3581 22.9242 50.0533 21.3936 57.3057 20.8056C58.8797 20.678 71.1517 21.1825 71.2501 18.7222C71.3496 16.2363 58.1749 15.0405 56.5834 14.75C51.9014 13.8954 47.248 13.4065 42.5557 12.7222C40.0478 12.3565 37.5505 11.7402 35.0001 12.1111C33.4369 12.3385 30.0512 11.9322 28.7223 12.7778C27.8702 13.3201 26.9534 13.7148 26.0834 14.2222C25.6791 14.4581 30.5116 14.854 31.0001 14.9445C40.1764 16.6438 48.9234 18.1819 58.3334 17.7778C64.546 17.511 70.7361 16.4333 76.9168 15.7778C82.7139 15.163 88.3734 15.2042 94.1112 14C97.61 13.2657 101.017 13.8444 104.5 13.5278C106.744 13.3238 110.003 15.1225 111.5 14" stroke="black" stroke-width="10" stroke-linecap="round"/>
<path d="M187 27.5C183.365 27.0099 180.103 27.1631 176.444 27.6944C171.49 28.4141 164.379 29.0804 160.278 32.3611C159.979 32.6002 159.53 32.9759 159.667 33.3333C160.057 34.3537 161.9 33.6535 162.944 33.3333C167.859 31.8272 172.074 28.14 175.667 24.6111C176.678 23.6171 179.097 21.4365 177.778 20.9167C175.218 19.9081 170.98 21.2949 168.528 22.0278C167.581 22.3106 162.906 24.1613 167.444 23.0833C170.891 22.2648 175.031 21.3051 177.722 18.8333C181.083 15.7465 168.65 16.7144 167.167 16.8889C163.003 17.3787 175.52 16.1144 179.667 15.5C183.691 14.9038 187.516 14.6191 191.278 16.5C193.974 17.8481 191.628 22.6001 191.389 25.0556C190.811 30.988 189.5 36.9851 189.5 42.9722C189.5 48.7468 193.385 54.8968 191.889 60.6111C191.053 63.8024 191.307 65.9864 191.722 69.25C192.261 73.4836 191.89 77.6602 191.278 81.8611C190.69 85.8925 191.611 89.9965 194.25 93.2222C195.419 94.6505 196.999 95.1375 198.111 96.3889C198.441 96.7599 197.746 95.6865 197.694 95.5555C196.325 92.0571 196.214 88.6365 196.389 84.9444C196.721 77.923 195.373 71.3543 194.278 64.4722C193.292 58.278 193.495 51.782 192.75 45.5278C192.422 42.7743 192.362 39.9868 192.111 37.2222C191.96 35.5634 192.669 32.3433 191.667 30.8889C189.422 27.6306 183.37 27.5866 179.972 26.6111C168.743 23.3867 157.725 21.7832 146.028 21.3333C137.223 20.9947 128.559 22.0849 119.778 22.3889C117.804 22.4572 111.22 23.8797 110.5 21" stroke="black" stroke-width="10" stroke-linecap="round"/>
<path d="M175 19C160.16 17.8128 144.468 17.2431 129.667 19.1111C123.612 19.8754 117.886 20.4986 111.778 20.2778C110.78 20.2417 104.158 20.1125 104.333 20C112.205 14.9395 123.475 15.0015 132.472 14.4722C138.501 14.1176 143.413 13.5645 149.472 14.75C152.212 15.2861 155.001 16.0965 157.778 16.3889C161.321 16.7619 165.233 15.9997 168.778 15.75C170.996 15.5938 188.046 15.4703 187.167 18.8611C185.337 25.918 184.308 33.7276 183.5 41" stroke="black" stroke-width="10" stroke-linecap="round"/>
<path d="M195 12.5C181.654 12.8104 168.265 13.2209 154.945 14.1111C142.023 14.9747 129.24 16.976 116.389 18.5C108.941 19.3832 101.741 20.6715 94.5001 22.6111C91.8823 23.3123 84.3411 26.2846 91.8334 24.7778C95.9634 23.9472 99.9756 22.6145 103.945 21.2222C105.232 20.7707 109.917 19.1773 105.167 19.8333C100.527 20.4741 95.8953 21.5445 91.4445 23C91.3443 23.0328 83.9005 25.6678 87.5556 25.3333C91.4804 24.9742 95.338 23.9657 99.2223 23.3333C103.606 22.6197 90.4997 25.0234 86.1667 26C82.2469 26.8835 80.0428 27.4404 76.2778 28.6111C74.5835 29.138 72.9901 30.1254 71.2223 30.2778C68.8977 30.4782 74.8896 27.3432 76.389 25.5556C78.5366 22.9949 73.6389 23.7608 72.6667 23.9444C68.6839 24.6968 64.7376 26.3425 61.1112 28.1111C57.9558 29.6499 54.2645 31.571 52.5556 34.8333C51.4542 36.9361 51.2482 40.8749 54.5556 41.1111C59.1958 41.4426 64.7189 36.7407 67.5001 33.5556C70.1951 30.4691 70.0166 26.8321 65.0556 28.4444C60.7586 29.841 53.6601 34.1385 52.889 39.1667C52.1515 43.9751 62.3262 38.9681 63.2778 38.3889C66.3229 36.5354 69.187 31.4996 62.9445 32C57.1981 32.4606 50.036 36.7465 47.2778 41.8889C43.7813 48.4079 52.1445 45.8317 54.6112 44.1667C56.3221 43.0118 65.5188 35.771 61.7778 32.6111C58.4558 29.8051 51.3602 35.3421 49.1667 37.2222C48.9395 37.417 41.2223 45.6411 46.389 45.0556C51.5884 44.4663 56.5151 37.297 58.7223 33.2222C62.885 25.5372 54.6343 29.7206 51.889 32.1944C49.7298 34.1401 44.8491 39.2411 46.4167 42.6667C48.2286 46.6259 54.5569 40.1256 55.5001 38.6667C56.6331 36.914 58.4111 31.1353 54.2778 31.5C51.1211 31.7785 47.654 35.0195 45.9723 37.5C43.4069 41.2839 49.0577 36.3302 49.389 35.8333C50.0936 34.7764 54.5145 25.6647 49.4445 27.3333C47.3179 28.0332 41.4629 33.3243 44.0556 35.9722C46.8546 38.8307 55.2129 35.1034 58.1945 34.3333C69.7528 31.3481 80.9878 33.7769 92.6112 32.3056C99.4295 31.4425 106.095 29.4955 112.861 28.3056C120.268 27.0028 127.768 25.8851 135.25 25.1111C143.941 24.212 153.28 23.8058 161.945 25.25C163.797 25.5587 165.625 25.9299 167.417 26.5C169.708 27.229 169.873 27.225 167.278 27C148.354 25.3592 129.07 27.7149 110.611 31.8333C102.82 33.5715 94.9132 35.184 87.2223 37.3333C84.229 38.1698 78.7295 39.1491 76.3334 41.3889C73.591 43.9524 83.8639 41.1253 87.5556 40.4444C98.285 38.4657 108.968 36.3387 119.833 35.2222C133.225 33.8462 146.097 34.3223 159.445 35.5C162.412 35.7618 165.351 36.0194 168.333 36C170.057 35.9888 174.986 35.9929 173.445 35.2222C172.25 34.625 170.78 35.0051 169.445 35C167.317 34.9919 161.153 35.0647 159.333 35.1111C150.416 35.3387 141.584 36.1229 132.722 37.1111C115.281 39.056 97.7663 41.1511 80.389 43.6111C75.6534 44.2815 71.2318 45.4579 66.7778 47.1667C64.9826 47.8554 61.625 49.7273 59.6112 49.3611C57.1214 48.9084 64.2848 47.3492 66.7501 46.7778C74.2948 45.029 82.0826 44.4428 89.7501 43.4722C106.907 41.3004 124.158 39.5766 141.222 36.75C148.725 35.5072 156.597 33.5556 164.25 33.5556C172.294 33.5556 179.885 34.6542 187.75 36.1667C188.135 36.2406 191.635 36.9856 191.556 37C188.738 37.5123 185.736 37.4982 182.889 37.7778C173.213 38.7281 163.306 39.4141 153.833 41.6944C153.397 41.7995 152.151 42.0743 152.583 42.1944C153.797 42.5315 155.102 42.254 156.361 42.2222C162.3 42.0725 168.249 41.907 174.139 42.8611C177.202 43.3572 181.468 44.1333 183.639 46.6667C185.25 48.546 181.777 48.4444 180.861 48.4444C177.144 48.4444 173.528 48.2643 169.806 48.5833C168.026 48.7358 159.597 48.5589 158.333 50.1389C157.649 50.994 160.522 50.0313 161.611 49.9167C164.334 49.63 167.055 49.3182 169.778 49.0278C172.559 48.7311 176.238 47.7787 179.083 48.3056C187.969 49.9511 160.985 48.9086 151.972 48.25C131.821 46.7774 111.727 46.828 91.5556 48.0278C80.1162 48.7082 68.6599 49.6838 57.3334 51.4722C55.3148 51.7909 53.1944 52.6806 51.389 53.5833C48.1653 55.1951 44.941 56.7899 41.7501 58.4444C40.9045 58.8829 35.1483 58.9608 35.8334 57.1111C36.8669 54.3208 46.2411 54.984 48.2223 54.7778C54.2586 54.1496 60.1203 52.412 66.0556 51.2222C74.8792 49.4534 83.8036 48.2157 92.6667 46.6667C107.659 44.0464 122.482 40.7773 137.667 39.5C144.875 38.8937 152.464 38.6508 159.556 40.3889C166.036 41.9773 144.038 39.3542 140 44.6667C138.655 46.4366 153.545 46.6675 153.667 46.6667C159.556 46.6251 165.901 45.6651 171.667 47.3333C175.783 48.5242 180.013 51.2845 183.833 53.2778C184.856 53.8115 188.997 57.1256 186.222 57.6111C183.067 58.1633 179.129 56.7421 176.056 56.2778C170.399 55.4232 164.823 55.215 159.111 55.25C147.4 55.3218 135.686 55 123.972 55C113.511 55 103.726 55.7295 93.5556 58.2222C86.1108 60.0469 78.84 62.1291 71.4723 64.2222C64.6932 66.1481 58.05 67.3428 51.0278 67.7778C47.2325 68.0129 43.409 68.2048 39.639 68.7222C38.8121 68.8357 37.6738 69.2133 36.8334 68.9167C33.8 67.846 41.5556 63.1784 41.9723 63.0278C45.8638 61.6212 49.9627 61.0878 54.0278 60.4444C66.6708 58.4434 79.3215 56.6738 92.0556 55.3333C102.876 54.1944 113.624 53.5861 124.5 53.5C130.836 53.4498 137.241 53.6667 143.556 53C148.671 52.4599 145.91 51.9606 150.333 52.8333C163.38 55.4076 176.568 58.0075 188.111 64.8889C192.768 67.6649 187.457 65.8468 185.056 65.3889C168.998 62.3271 152.971 62.3479 136.722 61.7778C123.04 61.2977 109.465 60.8851 95.7778 61.7222C87.9727 62.1996 80.345 64.75 72.7223 66.3889C63.7408 68.3199 54.4232 67.2856 45.7778 70.7778C42.1678 72.236 40.6958 74.0301 38.0001 76.3889C37.1933 77.0948 37.5647 77.2929 38.6667 77.1667C42.9877 76.6715 47.3484 75.3031 51.5556 74.2778C58.7885 72.5151 65.9876 70.479 73.3334 69.2222C82.308 67.6868 91.3875 67.4745 100.445 66.7778C115.699 65.6043 130.342 61.3463 145.5 59.7222C154.962 58.7084 163.834 59.3245 173.167 60.8889C176.707 61.4823 183.088 62.1825 185.111 65.7222C186.891 68.8368 187.292 72.5825 189.167 75.6111C190.003 76.9619 187.839 74.9207 187.833 74.9167C184.863 72.6886 181.308 71.8105 177.722 71.0556C164.773 68.3293 151.071 67.9469 137.889 67.3056C113.27 66.1079 89.6173 71.59 65.6945 76.4722C60.8404 77.4629 56.0512 80.0015 51.139 80.4167C46.3553 80.8209 41.3819 79.8146 36.7778 81.5278C34.9131 82.2216 30.0804 83.8591 29.1667 85.7778C28.1806 87.8486 33.6953 90.2335 35.1112 90.3889C41.014 91.0368 47.4537 87.7867 52.9445 86.1111C63.6892 82.8322 74.4809 80.7296 85.5556 78.8889C99.6976 76.5383 114.143 74.3899 128.445 73.3333C138.54 72.5875 148.668 72.6939 158.778 72.3889C164.491 72.2165 171.811 71.2743 177.111 74C180.164 75.5701 183.324 77.2296 186 79.3889C187.936 80.9514 189.061 82.6248 190.611 84.5C191.714 85.8341 194.651 87.5647 195.139 89.2222C195.68 91.0632 188.65 88.6467 188.167 88.5278C179.472 86.3874 170.264 85.1148 161.361 84.2778C149.658 83.1775 138.021 82.6591 126.278 82.9722C112.01 83.3527 97.829 83.7989 83.5834 84.7222C76.5455 85.1784 69.1479 84.9624 62.3056 86.8889C56.4628 88.534 51.7673 92.0556 45.5556 92.0556C40.6446 92.0556 35.4047 92.4828 30.5001 93.0278C29.6753 93.1194 27.4138 93.28 29.1945 91.9444C33.8613 88.4443 41.7141 87.8415 47.1945 86.7222C61.3519 83.8309 75.7211 82.5989 90.0001 80.4722C104.209 78.356 118.097 76.5556 132.5 76.5556C143.029 76.5556 153.558 77.2678 164.083 77.4722C167.3 77.5347 170.446 77.5626 173.639 78C174.103 78.0636 177.849 78.4866 177.611 78.6111C172.439 81.3203 187.422 87.9581 188.111 89.8889C189.158 92.8188 191.901 93.8805 194.889 94C195.15 94.0104 189.916 92.3725 188.889 92.1111C181.39 90.2024 173.194 89.3928 165.5 88.7222C153 87.6328 140.394 88 127.861 88C117.729 88 107.928 88.698 97.8056 87.7778C88.5403 86.9355 79.2534 88.1295 70.0001 88.4722C66.3093 88.6089 62.678 88.5556 59.0001 88.5556C56.672 88.5556 54.5335 89.4244 52.2501 89.7222C48.7536 90.1783 45.4569 89.5 42.0001 89.5" stroke="black" stroke-width="10" stroke-linecap="round"/>
<path d="M62 59.3437C62 61.5665 62.4524 58.5224 62.5278 57.8437C62.739 55.9429 63.7074 54.1975 63.9722 52.3437C64.5979 47.9643 66.2719 54.8705 67.25 56.0659C68.0929 57.0961 69.4047 57.7521 70.1111 58.8437C71.6412 61.2083 71.006 54.7376 71 54.4548C70.9551 52.3438 71.4266 50.4324 72.1111 48.4548C72.4823 47.3825 72.999 46.344 71.5 46.8437" stroke="#6D0D0D" stroke-width="2" stroke-linecap="round"/>
<path d="M76.0001 50.8437C76.2151 52.5635 82.5809 50.7219 78.7501 48.5937C76.9399 47.588 74.5067 52.2555 75.2501 53.5937C76.3204 55.5201 76.0519 57.7307 78.5001 58.9548C79.4663 59.4379 80.6286 59.6184 81.5001 58.8437C82.1537 58.2628 84.4868 56.8537 82.5001 58.3437" stroke="#6D0D0D" stroke-width="2" stroke-linecap="round"/>
<path d="M88 48.3437C88.5518 49.5852 89.5952 58.2961 88.5 58.8437" stroke="#6D0D0D" stroke-width="2" stroke-linecap="round"/>
<path d="M83.5 48.3437C85.8244 48.3437 87.9175 46.9115 90.2222 46.8437C90.9692 46.8217 96.5877 46.3437 93.5 46.3437" stroke="#6D0D0D" stroke-width="2" stroke-linecap="round"/>
<path d="M97.5 48.8437C97.7408 48.633 98.9474 58.0674 98.5 57.8437" stroke="#6D0D0D" stroke-width="2" stroke-linecap="round"/>
<path d="M97 49.3437C97.3253 49.762 97.4434 50.9272 97.5 49.4548C97.5456 48.2684 97.2443 46.8583 98.3889 46.0659C99.437 45.3403 106.5 46.2012 106.5 46.3437" stroke="#6D0D0D" stroke-width="2" stroke-linecap="round"/>
<path d="M99.5 51.3437C100.841 51.4331 102.169 51.6662 103.5 51.8437" stroke="#6D0D0D" stroke-width="2" stroke-linecap="round"/>
<path d="M108.5 46.8437C108.801 46.6841 110.111 45.5997 109.889 46.4548C109.492 47.9839 109.614 49.538 109.25 51.0659C108.951 52.3235 109 53.8877 109 55.2326C109 59.4894 109.894 57.3437 113.5 57.3437" stroke="#6D0D0D" stroke-width="2" stroke-linecap="round"/>
<path d="M118.5 48.3437C114.021 52.8233 122.363 58.7131 125.278 53.3437C126.43 51.2211 126.517 47.0813 124.222 45.6215C121.904 44.1459 118.972 47.6168 117.5 48.8437" stroke="#6D0D0D" stroke-width="2" stroke-linecap="round"/>
<path d="M137.5 46.3437C137.174 43.737 132.954 45.5943 131.889 46.3437C129.439 48.0673 127.97 50.4993 128.528 53.5659C128.899 55.6078 131.79 56.3437 133.528 56.3437C135.05 56.3437 138.549 54.3437 138.5 54.3437" stroke="#6D0D0D" stroke-width="2" stroke-linecap="round"/>
<path d="M143 49.8437C141.992 50.0677 141.811 51.6158 142.111 52.4548C142.769 54.2955 144.398 54.6935 146.111 54.9548C148.332 55.2936 152.415 54.6978 152.5 51.6215C152.574 48.9624 150.941 46.1353 147.889 46.0659C143.242 45.9603 141.962 48.9098 140 52.3437" stroke="#6D0D0D" stroke-width="2" stroke-linecap="round"/>
<path d="M162 46.3437C161.356 43.4439 157.892 46.819 157.5 48.0937C156.66 50.823 159.67 49.0465 160.389 51.8437C160.662 52.906 161.378 54.4167 160.5 55.3437C159.824 56.0573 158.222 57.1335 157.25 56.5937C156.073 55.9398 155.467 54.3437 154.5 54.3437" stroke="#6D0D0D" stroke-width="2" stroke-linecap="round"/>
<path d="M103 127C101.31 130.181 101.449 133.772 103.583 136.722C106.744 141.092 111.19 141.723 116.25 142.222C120.326 142.624 125.256 142.904 128.778 140.389C132.259 137.902 133.519 133.144 133.889 129.111C135.019 116.808 123.678 110.374 112.75 112.75C108.027 113.777 106.19 117.102 102.75 119.778C99.4398 122.352 101.548 127.603 99 131" stroke="black" stroke-width="3" stroke-linecap="round"/>
<path d="M117.5 111.743C117.84 112.972 119.85 109.402 119.972 109.134C120.714 107.507 121.161 105.751 121.5 104" stroke="black" stroke-width="3" stroke-linecap="round"/>
<path d="M114.5 113C116.767 110.432 116.273 107.082 117.115 104.137C117.805 101.726 119.859 99.6149 120.5 97" stroke="black" stroke-width="3" stroke-linecap="round"/>
<path d="M196 153C195.395 153.269 194.921 155.357 195.389 154.889C195.708 154.569 193.464 154.345 194.944 154.611C196.512 154.893 198.542 154.949 200 155.611C200.577 155.874 200.804 156.457 201.5 156.5C203.525 156.627 197.846 154.731 196 153.889C192.325 152.213 188.456 151.659 184.5 151" stroke="#680E0E" stroke-width="10" stroke-linecap="round"/>
<path d="M41.5002 89.5C40.7431 90.5095 45.5775 89.3692 46.028 89.25C48.7979 88.5168 51.6245 87.7075 54.5002 87.5278C60.0098 87.1834 65.6247 88.5 71.1669 88.5C71.5451 88.5 72.0964 88.4476 71.1947 88.2222C68.3766 87.5177 65.2195 87.4171 62.3336 87.6111C59.2269 87.82 56.0304 88.6712 53.0002 89.3889C52.1292 89.5952 50.8661 89.6207 50.1669 90.25C49.5214 90.831 54.0286 91.3745 54.2225 91.3889C56.392 91.5503 62.917 92.5832 64.5002 91" stroke="#040404" stroke-width="10" stroke-linecap="round"/>
<path d="M196 96C196.629 96.0699 197.12 96.5 196.167 96.5C193.898 96.5 191.535 96.1628 189.306 95.75C185.029 94.9581 181.091 93.4481 176.722 93C173.671 92.687 170.76 91.7502 167.694 91.5C163.811 91.1829 159.918 91.213 156.028 91.0277C149.463 90.7151 143.066 88.8719 136.528 88.5277C130.71 88.2216 125.42 88.3151 119.611 88.8889C115.87 89.2584 112.43 89.5987 108.722 90.3889C105.528 91.0696 102.28 91.7533 99 91.3889C95.0703 90.9522 91.2818 91.5 87.3333 91.5C82.8373 91.5 78.3902 90.7924 73.8889 91.1111C70.6403 91.3411 67.5376 91.9001 64.3333 92.3889C61.7744 92.7792 65.957 92.0543 66.5 92" stroke="#040404" stroke-width="10" stroke-linecap="round"/>
<path d="M71.25 38.5C71.1004 38.5299 71.4711 38.6175 71.5833 38.4167C71.9006 37.849 71.2742 37.2416 70.75 37.1667C70.2391 37.0937 69.5836 37.6746 70.2778 38.0278C71.0418 38.4165 72.0138 37.8486 72.5278 37.3056C73.7316 36.0336 71.896 37.023 71.5278 37.1389C70.9017 37.336 69.6973 37.4473 69.25 37" stroke="#040404" stroke-width="10" stroke-linecap="round"/>
<path d="M134.5 27C134.83 24.8802 133.962 23.8007 133.167 21.9445C132.79 21.0648 132.856 20.1586 132.639 19.25C132.397 18.24 131.759 17.4479 131.111 16.6667C130.038 15.3734 129.652 13.5978 128.305 12.5556C127.227 11.7208 126.006 10.8276 124.75 10.2778C122.993 9.50902 121.525 10.6204 119.875 10.7639C118.889 10.8496 116.011 11.5 117 11.5" stroke="#040404" stroke-width="10" stroke-linecap="round"/>
<path d="M185.625 153C185.531 152.06 184.568 151.27 183.875 150.75" stroke="#680E0E" stroke-width="10" stroke-linecap="round"/>
<path d="M198 167C199.356 166.261 199.206 165.053 199.694 163.75C200.01 162.909 200.75 162.227 200.75 161.306C200.75 160.951 200.846 160.321 200.5 160.097C200.219 159.916 199.916 159.436 199.778 159.125C199.546 158.602 200.289 157.834 200.062 157.382C199.98 157.216 199.965 157.116 199.75 157.028C199.668 156.994 199.783 156.857 199.653 156.403C199.57 156.113 199.732 155.6 199.312 155.507C199.251 155.493 198.629 155.283 198.826 155.125C199.113 154.896 199.582 155.276 199.778 155.472C199.91 155.604 200.977 156.395 200.444 156.243C200.149 156.159 200.242 155.455 200.097 155.278C199.983 155.138 199.73 154.96 199.875 155.25" stroke="#680E0E" stroke-width="10" stroke-linecap="round"/>
<path d="M196.5 157.5C197.414 157.414 199.043 157.016 199.549 156.118C199.823 155.629 199.186 155.248 198.944 154.938C198.458 154.313 199.443 154.682 199.25 154.875" stroke="#680E0E" stroke-width="10" stroke-linecap="round"/>
<path d="M199.125 155.625C199.617 155.606 200.546 155.46 199.875 155.125" stroke="#680E0E" stroke-width="10" stroke-linecap="round"/>
<path d="M198.625 155C198.757 154.881 199.833 154.125 199.75 154.125" stroke="#680E0E" stroke-width="10" stroke-linecap="round"/>
</svg>
