<svg width="107" height="177" viewBox="0 0 107 177" fill="none" xmlns="http://www.w3.org/2000/svg">
<path d="M30 28C30 29.5799 29.444 30.5935 28.7778 32C27.2325 35.2622 28.5529 38.7995 29.6111 42.0556C33.8753 55.1762 52.2103 58.7954 62.3889 49.9445C69.2835 43.9491 69.3877 31.7574 63.7778 25C50.6526 9.19016 33.8149 25.4961 26 38" stroke="#040404" stroke-width="3" stroke-linecap="round"/>
<path d="M57 55C57 66.5486 60 78.2555 60 90" stroke="#040404" stroke-width="3" stroke-linecap="round"/>
<path d="M58 71.9426C62.6164 76.2811 74.5604 66.1344 76.2204 61.9859C78.1088 57.2668 81.8887 53.2056 84.2047 48.566C85.3294 46.3128 87.5201 45.0186 88.6063 42.7218C89.1217 41.6318 89.2063 40.0461 88.4015 41.7478" stroke="#040404" stroke-width="3" stroke-linecap="round"/>
<path d="M58 72.5956C58.9219 79.7429 61.5926 69.1457 62.5 64.2825C63.0553 61.3063 63.4841 60.361 63.9365 56.3522C64.0881 55.009 64.4258 54.3893 64.5397 52.9067C64.6919 50.9258 64.8091 48.9733 65 47" stroke="#040404" stroke-width="3" stroke-linecap="round"/>
<path d="M38.2749 22.7362C42.2168 22.2982 41.7306 16.1036 41.2194 13.2918C41.1292 12.7958 36.8992 6.98474 38.2749 9.7362" stroke="#040404" stroke-width="3" stroke-linecap="round"/>
<path d="M44.8346 20C48.0192 20 44.0642 14.032 44.0016 11.8182C43.8981 8.16057 49 2 49 2" stroke="#040404" stroke-width="3" stroke-linecap="round"/>
<path d="M72.4139 49.5046L72.5395 49.3802" stroke="white" stroke-width="2" stroke-linecap="round"/>
<path d="M72.665 49.2559C72.7228 49.4921 73.4488 49.4404 73.54 49.2603" stroke="white" stroke-width="2" stroke-linecap="round"/>
<path d="M89.4617 40.091C88.2689 40.721 87.1445 41.2722 85.9932 41.9416C84.5335 42.7902 82.5547 43.4176 81.2169 44.3127C80.0954 45.063 78.7947 45.6936 77.5272 46.3563C76.8665 46.7018 75.1345 48.1489 74.4214 48.0053" stroke="#040404" stroke-width="2" stroke-linecap="round"/>
<path d="M74.4214 48.0147C74.4258 47.1476 74.4427 46.3052 74.2648 45.4684C74.004 44.2415 74.0214 42.8934 73.7293 41.6946C73.1912 39.4864 73.6452 36.9955 73.6569 34.6942C73.6621 33.667 73.6644 32.6916 73.7801 31.6779C73.9254 30.4049 73.834 29.3479 73.8292 28.0721C73.823 26.4269 73.7154 24.6045 73.9167 22.9815C74.0332 22.042 74.3497 20.9639 74.1475 20.013" stroke="#040404" stroke-width="2" stroke-linecap="round"/>
<path d="M73.566 19.51C76.823 18.2023 79.774 15.8436 82.8571 14.1682C83.5616 13.7854 87.3183 11.1847 87.109 11.0787" stroke="#040404" stroke-width="2" stroke-linecap="round"/>
<path d="M87.8603 10.8325C87.8642 10.0636 88.076 12.3574 88.1125 13.1255C88.2345 15.6913 88.7588 18.2931 88.8095 20.8375C88.8563 23.1846 89.0359 25.4825 89.0239 27.8525C89.0086 30.8594 88.4936 33.8166 88.4783 36.836C88.4741 37.6633 88.6756 38.3647 88.911 39.1438C89.0187 39.5002 88.9116 39.8686 88.975 40.2274C89.0216 40.4915 89.4518 40.841 89.208 40.8397" stroke="#040404" stroke-width="2" stroke-linecap="round"/>
<path d="M89.4619 40.091C89.9791 40.1252 89.6811 40.4318 89.7818 40.6056C89.9266 40.8555 91.0643 41.1974 91.4412 41.3835C93.069 42.1872 94.3379 43.1952 95.5519 44.1098C96.3426 44.7056 97.564 45.0836 98.2934 45.7123C98.657 46.0257 100.486 47.1764 100.425 47.1462" stroke="#040404" stroke-width="2" stroke-linecap="round"/>
<path d="M87.3606 10.8299C87.3712 10.7582 94.9469 13.504 95.8995 14.1233C97.4442 15.1274 99.2198 16.083 100.83 16.8983" stroke="#040404" stroke-width="2" stroke-linecap="round"/>
<path d="M100.491 45.6601C100.427 45.8727 100.406 46.4237 100.474 45.9765C100.539 45.5522 100.47 44.9813 100.5 44.5297C100.574 43.4052 100.596 42.1597 100.646 40.9811C100.681 40.1332 100.578 39.4179 100.647 38.5394C100.696 37.9207 100.708 37.2366 100.743 36.607C100.797 35.6502 100.89 34.726 100.953 33.7708C101.037 32.4939 101.097 30.9327 101.113 29.6344C101.138 27.5645 101.317 25.5263 101.347 23.4862C101.367 22.1313 101.388 20.561 101.519 19.2595C101.577 18.6744 101.59 18.1884 101.55 17.5867C101.518 17.1135 101.516 16.9094 101.512 17.5865" stroke="#040404" stroke-width="2" stroke-linecap="round"/>
<path d="M77.1715 23.4034C77.21 23.7249 78.0189 23.2333 77.6743 22.8504C77.4641 22.6167 77.5188 22.0301 77.9285 22.0322C78.3921 22.0346 78.7716 22.5518 79.2267 22.1013C79.4833 21.8473 79.1685 21.3575 79.4612 21.0678C79.8174 20.7151 80.3441 21.3445 80.8003 21.2898C81.3555 21.2233 81.3973 20.7632 81.6867 20.4263C82.0743 19.9749 82.2391 19.9291 82.8211 19.932C83.5442 19.9357 83.8208 19.493 84.1942 18.939" stroke="#040404" stroke-linecap="round"/>
<path d="M77.5282 27.0303C77.0676 27.0586 78.4223 27.2288 78.4739 26.7851C78.519 26.3971 78.0588 26.3807 78.5059 25.938C79.0018 25.4471 80.9824 27.5215 81.0332 26.048C81.0471 25.645 81.407 25.1051 81.7887 24.9546C82.1766 24.8018 82.6358 25.4478 83.1063 25.3363C83.4083 25.2647 83.3396 24.4567 83.6955 24.1865C84.1188 23.8651 84.896 24.1926 85.4177 24.1953" stroke="#040404" stroke-linecap="round"/>
<path d="M77.252 32.1539C78.4086 32.0577 77.8159 29.8183 79.2308 30.8584C80.0993 31.4968 80.2109 29.9163 80.6329 29.6293C81.3217 29.1609 82.3804 30.1228 83.2031 29.4896C83.4713 29.2832 83.5379 28.6842 83.8397 28.5762C84.312 28.4071 85.0044 28.5464 85.5209 28.4458" stroke="#040404" stroke-linecap="round"/>
<path d="M77.4818 36.1551C78.517 36.4878 77.6387 35.0461 78.4329 34.8613C78.8239 34.7703 79.2225 35.025 79.6126 35.027C80.0356 35.0292 80.587 34.6226 80.8385 34.2971C81.3314 33.6594 81.1722 33.09 82.1829 33.4914C83.1886 33.8908 83.7384 33.3528 84.3752 32.5651" stroke="#040404" stroke-linecap="round"/>
<path d="M77.839 39.657C78.8273 39.8904 78.6165 38.7249 79.0683 38.2604C79.7432 37.5666 80.4423 38.2786 81.2225 37.9797C81.5802 37.8427 81.6272 37.6205 81.7885 37.302C82.0101 36.8644 82.1985 36.7081 82.5985 36.4311C83.027 36.1344 83.3761 36.2585 83.8567 36.1736C84.4069 36.0765 84.9455 35.5384 85.3617 35.1951" stroke="#040404" stroke-linecap="round"/>
<path d="M78.4468 43.0279C78.9855 43.1339 79.2389 42.0986 79.4747 41.8306C80.1252 41.0911 81.3 41.4602 82.0578 40.6879C82.5596 40.1766 82.4903 40.0477 83.2746 39.8418C84.0634 39.6347 84.8711 39.522 85.467 39.0707" stroke="#040404" stroke-linecap="round"/>
<path d="M91.5731 18.2265C92.1572 18.171 92.3412 17.6772 92.949 18.0529C93.464 18.3712 93.7467 19.4736 94.4487 19.4772C94.9754 19.4799 95.0284 18.5987 95.6673 18.8306C95.9335 18.9272 96.1733 19.6023 96.3915 19.8065C96.8113 20.1991 97.2649 20.3195 97.8122 20.3832" stroke="#040404" stroke-linecap="round"/>
<path d="M91.9269 22.3533C92.5852 22.2874 92.797 21.7725 93.5335 21.8684C93.9615 21.9241 94.0642 22.7079 94.5772 22.839C95.1173 22.9769 95.3975 22.495 95.8091 22.3174C96.0545 22.2115 96.3138 22.2588 96.4261 22.515C96.658 23.044 97.1632 23.4541 97.5442 23.8818" stroke="#040404" stroke-linecap="round"/>
<path d="M91.9086 25.9783C92.4176 25.7121 92.7786 25.182 93.4123 25.2428C94.067 25.3057 94.137 25.8728 94.6298 26.1865C95.1234 26.5009 95.5093 25.8044 95.9167 25.7556C96.6771 25.6644 96.9902 26.3934 97.404 26.8812" stroke="#040404" stroke-linecap="round"/>
<path d="M91.5234 27.9763C91.8333 28.2894 92.0722 28.4791 92.5209 28.4814C93.0398 28.484 93.4855 27.8874 94.0233 28.0168C94.5991 28.1554 94.7956 28.746 95.3938 28.8988C95.8185 29.0072 96.1925 29.0313 96.6162 28.8772C96.9224 28.7658 97.2223 28.5308 97.5202 28.6318" stroke="#040404" stroke-linecap="round"/>
<path d="M91.378 31.9756C91.7485 31.7264 92.3391 31.1477 92.7829 31.5661C93.0681 31.835 93.4007 32.8763 93.8815 32.6689C94.2259 32.5203 94.7721 32.0838 95.0559 32.5012C95.5455 33.2212 95.5333 33.4092 96.4953 33.5016" stroke="#040404" stroke-linecap="round"/>
<path d="M91.6134 34.8518C91.5674 34.8208 92.1254 34.6331 92.2117 34.6257C92.4961 34.6013 92.6182 34.973 92.7368 35.17C92.9895 35.59 93.127 36.1006 93.6708 35.8623C94.0274 35.7059 94.5802 35.7401 94.6063 36.242C94.6559 37.1945 95.397 37.1822 96.2262 37.2502" stroke="#040404" stroke-linecap="round"/>
<path d="M91.7219 38.1025C92.3166 38.2643 93.3509 38.0967 93.5653 38.8618C93.6012 38.99 93.5973 39.4754 93.7427 39.4878C94.2758 39.5331 95.1099 39.286 95.4633 39.802C95.697 40.1432 95.65 40.5746 95.8535 40.9221C95.976 41.1313 96.1889 41.3111 96.3297 41.5009" stroke="#040404" stroke-linecap="round"/>
<path d="M73.5407 49.1353C72.9758 49.6324 71.4743 49.1315 71.1693 48.4357C71.0129 48.0791 71.115 47.538 71.0579 47.1227C70.9856 46.598 70.9045 46.1445 70.746 45.628C70.4069 44.5231 70.7039 43.1201 70.5703 41.9326C70.4101 40.5084 70.1921 39.1593 70.3416 37.737C70.4201 36.9902 70.481 36.2787 70.4848 35.5224C70.4886 34.7739 70.2347 33.9863 70.3991 33.2441C70.7958 31.4535 69.8448 29.6531 70.1766 27.8402C70.5006 26.0697 71.0388 24.0735 70.7743 22.2737C70.6469 21.4069 70.8476 20.5074 70.7183 19.6206C70.6159 18.9179 70.5799 16.7847 70.5763 17.4948" stroke="#040404" stroke-width="2" stroke-linecap="round"/>
<path d="M71.579 16.9999C72.3489 16.8513 73.0388 16.0292 73.804 15.8017C74.9637 15.4569 75.9129 14.7268 77.0001 14.215C78.3103 13.5982 79.3747 12.6456 80.6274 11.931C81.9073 11.201 83.2811 10.6763 84.5475 9.9181C84.9995 9.64745 85.9164 9.73632 86.2878 9.40233C86.5548 9.16224 87.2793 9.07949 87.6194 9.08122" stroke="#040404" stroke-width="2" stroke-linecap="round"/>
<path d="M105.588 15.1725C105.086 15.1188 104.25 14.7029 103.88 14.3801C103.205 13.7905 102.465 13.5642 101.562 13.3359C99.8086 12.8927 98.4104 11.7309 96.708 11.1219C95.98 10.8614 95.2798 10.6247 94.606 10.2777C94.0509 9.99187 93.4196 9.88627 92.8015 9.70878C92.1682 9.52693 91.51 9.39123 90.8463 9.38786C90.0956 9.38405 89.3847 8.92317 88.6188 9.15264" stroke="#040404" stroke-width="2" stroke-linecap="round"/>
<path d="M104.714 15.0431C104.443 16.3638 105.075 17.894 105.068 19.295C105.063 20.1042 105.31 20.8693 105.305 21.6712C105.301 22.5627 105.171 23.4529 105.167 24.3511C105.163 25.1382 105.095 25.9543 105.224 26.7333C105.383 27.6926 105.271 28.5296 105.266 29.4905C105.256 31.4981 104.724 33.4322 104.513 35.4173C104.427 36.2302 104.477 37.0725 104.473 37.8894C104.468 38.8689 104.317 39.7905 104.236 40.7632C104.106 42.3417 104.06 43.9038 104.178 45.4713C104.226 46.1162 104.492 47.1936 104.174 47.6658" stroke="#040404" stroke-width="2" stroke-linecap="round"/>
<path d="M100.429 46.5217C100.928 46.5741 101.077 47.1693 101.579 47.1526C102.209 47.1316 102.681 46.4573 103.181 46.1607" stroke="#040404" stroke-width="2" stroke-linecap="round"/>
<path d="M46 39C47.5071 38.8116 48.2873 35.9834 50 35.2222C51.1192 34.7248 53.9393 33.0624 55 33C59.0133 32.7639 63.2008 32.2664 67 31" stroke="#040404" stroke-width="3" stroke-linecap="round"/>
<path d="M68 30C66.7819 29.8477 73.1804 26.9381 71.9444 32.5C70.6964 38.116 67.1083 32.7028 65 32" stroke="#040404" stroke-width="3" stroke-linecap="round"/>
<path d="M68.2499 125.5C67.7796 125.634 68.6012 125.958 68.7082 125.972C69.8246 126.116 70.9858 125.974 72.111 126.056C75.4234 126.294 78.8636 126.24 82.1388 126.764C85.6186 127.321 89.5813 126.812 92.8471 128.264C95.4659 129.428 95.4754 133.394 95.4999 135.889C95.5353 139.499 94.6302 143.082 94.9443 146.694C95.1826 149.435 95.737 152.206 95.3749 154.958C95.001 157.8 96.9025 162.122 94.9999 164.5" stroke="#040404" stroke-width="3" stroke-linecap="round"/>
<path d="M64.5 123.5C67.2074 122.706 69.2814 120.542 72 119.611C75.3964 118.448 78.2703 119.204 80.7639 121.653C82.5304 123.388 84.351 125.285 85.4722 127.528C86.6606 129.905 87.4395 132.402 88.75 134.75C90.4269 137.754 91.4596 140.944 92.6944 144.139C94.1076 147.795 95.7973 151.415 96.8472 155.194C97.8626 158.85 98.8429 162.482 100.25 166" stroke="#040404" stroke-width="3" stroke-linecap="round"/>
<path d="M59.5 88.5V96" stroke="white" stroke-width="2" stroke-linecap="round"/>
<path d="M58 106.499C63.637 105.42 68.9667 103.949 74.688 104.001C79.8366 104.049 86.2293 104.667 90.908 108.025C93.235 109.695 95.0582 113.716 94.9986 117.377C94.948 120.477 92.5664 122.733 90.9894 124.453C85.7269 130.193 84.0005 137.525 83.8054 146.569C83.668 152.94 84.2373 158.667 86.0033 164.607C86.5134 166.322 87.047 168.041 87.6721 169.685C87.839 170.124 88.4048 172.42 88.4048 171.933" stroke="#851515" stroke-width="5" stroke-linecap="round"/>
<path d="M57.8977 98.9453C57.2593 95.7394 56.0062 92.9456 55.9306 89.5563C55.848 85.8542 55.6361 82.2944 55.157 78.6071C54.7856 75.7488 53.5029 71.0008 51.9259 68.6278C49.2831 64.651 46.1759 64.3581 42.417 62.2168C39.5015 60.5559 37.1145 60.0489 35.2119 56.9632C33.5514 54.2701 31.2279 52.1419 29.7231 49.3043C28.4008 46.8109 27.6733 44.6093 27.7111 41.8338C27.7388 39.8008 27.1486 37.8052 27.3449 35.7681C27.6114 33.0007 28.416 30.5033 28.5647 27.7047" stroke="#851515" stroke-width="3" stroke-linecap="round"/>
<path d="M85.5 173.5C82.9582 173.232 79.808 172.109 77.3889 171.278C73.7913 170.042 70.3343 169.272 66.6111 168.5C61.3454 167.408 55.4906 165.087 50.1111 165C45.6984 164.929 41.6008 163.944 37.2222 163.389C30.5155 162.539 24.1378 162.829 17.5 164" stroke="#851515" stroke-width="3" stroke-linecap="round"/>
<path d="M17.5 65C17.3639 59.9655 16.0107 58.2527 11 57" stroke="#851515" stroke-width="3" stroke-linecap="round"/>
<path d="M28 29.9576C24.6223 26.02 20.6022 20.5764 15.1817 22.3426C12.8145 23.114 9.3315 24.3026 7.57846 26.4836C6.45727 27.8785 4.43228 29.8841 2.99702 30.847C1.52218 31.8364 2.11972 35.104 2.11972 36.7389C2.11972 39.5293 1.67122 42.8862 2.80206 45.4655C4.44559 49.2142 5.79966 51.6418 6.60368 55.8597C7.27502 59.3816 8.19727 62.7698 8.69945 66.3651C9.27902 70.5145 10.5207 74.4457 11.0876 78.5102C11.6767 82.7326 10.4437 86.6968 10.6977 90.8498C10.8695 93.6567 10.8441 96.4634 10.9902 99.2708C11.2533 104.33 10.3595 108.202 9.1381 113" stroke="#851515" stroke-width="3" stroke-linecap="round"/>
<path d="M11.9971 104.073C12.298 103.595 11.9105 105.6 11.8026 106.334C11.3666 109.301 10.6818 112.129 10.413 115.187C9.94833 120.476 10.6376 126.024 10.0935 131.184C9.72156 134.71 9.1009 138.233 9.0096 141.857C8.92864 145.071 9.38429 147.862 9.45426 150.986C9.56266 155.827 8.17325 161.436 10.4964 164.638C12.7192 167.702 15.8058 164.638 18 164.638" stroke="#851515" stroke-width="3" stroke-linecap="round"/>
<path d="M57.25 97.375C57.448 97.7992 57.1895 98.2829 57.1806 98.7222C57.1746 99.0157 57.338 99.2772 57.3681 99.5625C57.4204 100.059 57.2967 100.577 57.4445 101.062C57.5435 101.388 57.625 101.648 57.625 101.993C57.625 102.274 57.4549 102.638 57.5278 102.903C57.5993 103.162 57.8347 103.365 57.8681 103.632C57.9082 103.953 57.8798 104.199 58 104.5" stroke="#851515" stroke-width="3" stroke-linecap="round"/>
<path d="M36 98H34.5" stroke="#851515" stroke-width="5" stroke-linecap="round"/>
<path d="M37 69.5C28.2705 76.4108 23.0736 88.8529 25.3056 99.7778C26.1883 104.098 26.8241 116.722 33.8889 115.167C38.8574 114.073 40.7389 104.972 37.3334 101.472C35.5797 99.6698 32.7773 100.568 31.1111 102C28.7176 104.057 29.1499 107.521 31 109.833C32.0923 111.199 34.9044 111.98 35.5278 109.694C36.4075 106.469 31.3617 107.592 30.6667 109.944C29.7662 112.992 34.4597 110.228 34.8334 107.944C35.7052 102.617 29.7706 108.444 32.4445 108.722C36.0704 109.099 36.124 102.096 32.3056 103.528C30.5397 104.19 31.1875 106.634 33.0556 106.389C35.5323 106.064 37.0635 103.023 36.2778 100.778C35.6821 99.0758 34.1631 98.1667 32.4167 98.1667C31.0032 98.1667 28.0648 100.635 30.8334 101.5C32.9943 102.175 35.7254 99.8128 35.4167 97.5833C35.1079 95.3529 31.6306 95.4415 31 97.3333C30.1023 100.026 38.5967 99.3075 36.1667 94.0556C35.1851 91.9339 32.2892 91.4606 30.6111 93.0556C28.9384 94.6455 30.0544 97.0497 32.4167 96.0833C37.1744 94.137 32.4072 88.9015 29.3334 93C28.1804 94.5374 29.1376 97.3068 31.2223 95.3056C32.9532 93.6438 32.6789 90.249 29.7778 90.0556C23.558 89.6409 28.5714 97.7965 30.6667 93.7222C31.4252 92.2473 26.8588 93.7658 25.8889 95.1111C23.9295 97.8291 25.1769 100.455 28.5278 100.222C29.0821 100.184 29.645 99.9299 30.0556 99.5556C30.207 99.4175 29.648 99.2557 29.4723 99.3611C27.1968 100.726 26.4217 103.411 27.5556 105.778C28.2791 107.288 27.3772 105.836 25.3611 107.917C23.1245 110.225 24.3895 112.479 27.5 110.944C27.908 110.743 30.491 108.9 28.6667 107.889C26.5919 106.739 22.6859 109.007 22.6111 111.361C22.4965 114.973 28.8785 111.194 29.4445 110.722C31.8441 108.72 30.2185 106.916 27.6111 108C22.0989 110.292 22.9373 118.417 28.9445 114.556C29.3982 114.264 29.9959 113.744 29.8611 113.222C29.5118 111.868 26.8895 113.245 25.75 114.056C24.6871 114.811 20.7487 119.38 25 119.556C25.9481 119.595 28.4651 118.687 28.1111 117.056C27.5159 114.312 22.7929 116.242 22.25 117.972C21.6238 119.968 26.8814 118.117 28.3889 116.667C30.056 115.062 26.3644 116.646 25.8334 118.306C25.2754 120.049 26.1691 121.265 27.9445 121.472C30.3892 121.758 31.6403 118.787 30.3334 119.222C24.9774 121.008 27.2058 126.618 30.5 128.5" stroke="#851515" stroke-width="5" stroke-linecap="round"/>
<path d="M37.4999 137.5C38.7728 138.682 39.6064 140.369 40.7499 141.667C42.9576 144.172 40.9315 140.822 38.9999 140.5C36.0503 140.008 32.7006 142.674 34.4166 145.833C35.8035 148.387 43.6273 148.71 41.9166 145.472C40.3564 142.519 35.0398 144.707 33.4999 146.278C29.4467 150.412 36.8332 152.451 39.7221 150.889C43.3495 148.927 39.5732 146.457 37.4999 146.056C35.522 145.673 26.1859 146.105 27.2221 150.25C28.0946 153.74 37.0986 149.639 29.6944 146.694C28.7335 146.312 23.3895 145.464 24.0555 148.389C24.7617 151.49 31.771 149.844 31.4999 146.889C31.2011 143.632 25.0722 146.728 24.3055 147.25C23.287 147.944 20.4943 152.947 23.9999 151.583C24.676 151.32 21.096 151.347 20.9999 151.389C18.1278 152.64 21.8772 153.938 23.4444 152.833C26.9853 150.337 14.5871 150.489 19.0555 154C19.407 154.276 21.9597 154.302 21.2777 153.861C20.0596 153.073 17.5214 154.125 16.7777 155.194C16.1047 156.162 17.0785 157.001 15.8888 158C14.9298 158.806 14.6512 159.769 13.6388 160.528C13.3343 160.756 14.1207 161.246 14.4999 161.278C15.9303 161.4 16.0514 159 16.1388 158.222C16.4031 155.873 16.1511 153.517 16.3333 151.167C16.4632 149.49 17.1725 147.983 17.3888 146.333C17.8845 142.553 12.8938 149.556 13.611 151.389C14.1422 152.746 16.6547 144.34 16.7221 144.111C18.4104 138.381 19.4758 132.417 22.0555 127C25.4211 119.932 29.8964 113.383 33.0555 106.222C36.267 98.9428 36.1065 90.4699 35.3888 82.6945C34.7851 76.1545 31.2627 73.1009 27.8055 67.9445C25.1179 63.9358 21.8518 59.3665 20.2221 54.7778C20.153 54.5832 19.3664 51.0902 18.9444 51.2778C17.1229 52.0873 17.0416 59.8229 16.8333 61.5278C16.3433 65.5362 16.4329 69.3787 17.611 73.2778C18.4887 76.1826 20.2127 78.8127 19.7777 81.9445C19.0181 87.4135 18.1691 93.0089 16.9444 98.3889C15.3734 105.29 13.6762 112.387 12.9444 119.444C12.7819 121.011 12.8519 120.848 13.7221 121.667C14.7564 122.64 14.4999 124.564 14.4999 125.833C14.4999 130.506 14.061 135.239 13.611 139.889C13.0608 145.575 14.4118 139.577 15.2777 137.25C18.0085 129.911 22.7354 123.454 26.4999 117" stroke="#851515" stroke-width="10" stroke-linecap="round"/>
<path d="M34.5001 93.5C29.9982 97.2471 25.8476 100.516 25.0835 106.75C24.346 112.766 28.7457 112.397 27.6946 107.583C26.7566 103.289 23.8984 106.349 23.0001 108.611C21.1292 113.324 21.5001 118.109 21.5001 123" stroke="#851515" stroke-width="10" stroke-linecap="round"/>
<path d="M80.7501 173.5C75.2464 173.019 69.7988 172.651 64.4167 171.361C59.9957 170.301 55.6065 169.521 51.0973 168.986C40.3717 167.715 29.7099 166.676 18.9167 166.139C16.4694 166.017 14.0293 165.807 11.5834 165.667C9.42539 165.543 9.65803 165.633 11.4862 165.764C13.6837 165.921 12.7936 165.848 11.514 166.056C10.364 166.242 13.8372 166.618 14.7779 167.306C15.0759 167.523 14.1019 167.501 14.8334 167.694C16.1953 168.054 20.2114 168.459 20.8334 168.528C25.0088 168.992 29.1868 169.381 33.3751 169.667C37.7958 169.968 42.2055 170.945 46.6112 171.431C49.3812 171.736 49.5891 171.462 51.9723 172.069C57.2778 173.422 62.3831 174.489 67.8334 174.75C69.7765 174.843 71.9748 175.357 73.889 175.056C75.6299 174.781 74.0527 174.623 75.0556 173.833C76.1417 172.979 78.0155 173.154 79.1667 173.222C80.7065 173.313 82.7326 174.041 84.3195 173.944C84.6773 173.923 86.6337 173.936 85.2362 173.903C83.8847 173.871 85.3486 174.227 83.0973 174C82.1254 173.902 80.9327 173.38 80.1667 173.986C79.8728 174.219 80.8265 174.353 81.1112 174.597C81.8321 175.215 79.2244 174.232 78.2779 174.306C76.6434 174.433 74.8501 173.997 73.1945 173.667C70.5508 173.14 68.0651 172.133 65.389 171.667C63.187 171.283 59.5048 170.499 57.2501 171.278C57.025 171.356 57.56 171.557 57.4723 171.444C57.2634 171.176 56.3419 170.834 56.2223 170.778C54.2756 169.868 58.7542 170.728 55.4445 170.028C46.7525 168.189 37.7755 167.004 29.0001 165.75" stroke="#851515" stroke-width="3" stroke-linecap="round"/>
<path d="M71 134C68.8365 132.752 68.2167 133 66 133" stroke="#851515" stroke-width="10" stroke-linecap="round"/>
<path d="M38.9999 146C40.2781 143.728 48.4603 133.589 50.6666 141.889C51.5069 145.05 44.6415 145.673 46.6666 148.444C53.5613 157.879 63.9551 149.056 64.7777 140.556C65.5588 132.484 55.4681 141.935 54.8888 146.222C54.6261 148.167 55.4051 155.435 58.8888 155C59.7838 154.888 58.7401 152.96 57.9999 152.444C54.1903 149.792 49.2283 150.715 45.111 151.833C38.9531 153.507 28.8524 156.595 23.7777 160.944C20.4498 163.797 32.5143 161.671 36.8888 161.944C45.281 162.469 55.9465 163.511 63.9999 166C68.8568 167.501 74.7043 166.596 79.2222 168.222C81.6986 169.114 80.4426 170.9 78.7777 169.556C73.9809 165.681 77.3679 157.4 77.9444 152.5C78.2355 150.025 78.74 145.732 77.4999 143.5C75.5309 139.956 75.9999 151.907 75.9999 154C75.9999 156.305 76.179 158.605 76.9999 160.778C77.375 161.771 79.3842 164.219 78.5555 163.556C72.6228 158.809 63.0783 149.127 55.0555 156.556C51.1056 160.213 59.6638 158.955 60.7222 158.444C64.9774 156.39 65.8552 150.493 59.7222 150.889C57.7376 151.017 47.5101 156.713 52.3888 159.222C57.4655 161.833 60.6255 155.052 56.4999 151.556C51.3816 147.218 44.7093 149.195 40.2222 153.222C35.4734 157.484 44.5205 154.018 45.2777 153.556C49.8194 150.784 50.9052 145.968 45.0555 144.056C43.8408 143.658 40.5133 142.937 41.2222 144C42.3232 145.652 49.9395 143.411 50.8888 143.111C61.6672 139.704 68.7262 127.91 77.7777 121.444C86.8212 114.985 76.9126 111.19 69.0555 112.5C67.994 112.677 60.4525 112.539 64.7222 111.611C69.0627 110.668 74.1335 112.37 78.4444 112.944C89.7525 114.452 77.3692 129.258 74.2222 133C72.2429 135.354 69.1135 139.04 71.111 142.333C71.7399 143.37 74.8509 145.91 75.9999 144.111C78.7358 139.829 78.9629 127.181 75.111 137.667C73.8621 141.067 73.5804 144.739 72.2777 148.111C71.9957 148.841 67.5884 155.451 67.4999 154.611C67.2896 152.613 69.4542 146.683 71.111 145.5C72.1099 144.787 70.6731 147.917 70.3888 149.111C69.4539 153.038 68.2634 157.361 68.8888 161.444C69.4612 165.182 71.8649 165.225 74.7777 164.222C75.264 164.055 79.1019 163.266 79.3333 162.778C80.1856 160.978 77.7205 153.696 77.6666 151.778C77.4826 145.227 79.0786 139.194 81.3333 133.111C83.8447 126.336 86.1157 123.57 86.9444 116.111C87.709 109.229 77.6277 107.844 73.1666 108.5C72.1563 108.649 64.3695 111.066 67.3888 110.833C71.9505 110.482 76.7605 107.385 81.2222 110C94.8567 117.993 73.5942 124.244 67.2222 126C61.2536 127.645 35.4298 133.32 35.3333 142.778C35.2592 150.034 48.7121 142.621 50.4444 140.889C51.8839 139.449 52.8987 137.09 49.8888 136.556C44.0599 135.521 37.3944 139.349 33.1666 142.833C27.13 147.809 26.3756 156.751 19.7222 160.333C19.1668 160.632 20.4984 159.335 20.9444 158.889C27.6779 152.155 30.2571 142.833 32.9999 134C33.6961 131.758 41.826 108.18 39.4444 108.556C35.2216 109.222 32.5017 114.785 31.2222 118.222C29.756 122.161 28.6247 135.07 24.9444 137.278C21.5946 139.288 27.6975 129.962 29.2777 126.389C31.2496 121.931 29.6414 122.499 28.3333 126.278C24.2728 138.008 52.9481 127.571 57.8333 125.722C62.186 124.075 66.3392 121.224 69.0555 117.389C70.2921 115.643 64.7355 117.456 62.6666 118C59.529 118.826 52.0815 121.587 49.4444 118.111C46.8338 114.67 49.1292 106.951 48.7777 102.889C48.3465 97.9064 44.0265 92.9834 38.8888 92.2222C32.59 91.2891 34.5182 103.326 39.5555 104.889C42.0944 105.677 38.686 106.229 37.5555 108.778C36.2544 111.712 34.9709 119.197 38.4444 121.444C40.0794 122.502 42.8026 120.493 44.111 119.667C44.4906 119.427 44.1575 119.536 43.9999 119.333C42.8853 117.9 42.7658 115.432 42.4999 113.778C41.802 109.435 41.3319 105.308 42.111 100.944C42.6382 97.9926 44.7053 93.1337 43.0555 90.2222C41.0101 86.6127 34.8719 87.2261 31.4999 86.8889C26.7095 86.4099 27.9534 84.8719 27.2222 81.1111C26.2776 76.2534 20.1666 76.2778 19.111 72.0556C18.5024 69.621 38.1025 81.5834 39.8888 75.7778C40.6047 73.4511 34.3042 72 36.6666 72C42.0982 72 40.9999 75.6263 40.9999 80C40.9999 85.9819 39.5697 91.9357 40.4999 97.8889C41.537 104.526 41.688 106.568 34.9999 109" stroke="#851515" stroke-width="10" stroke-linecap="round"/>
<path d="M49 120.25C48.5175 121.586 48.175 123.107 46.6806 123.653C46.2638 123.805 45.0467 123.572 46.0834 123.722C47.3299 123.903 48.7654 124.051 49.8889 124.667C51.6172 125.613 52.2319 127.58 52.8611 129.306C53.6985 131.602 55.0816 133.331 56.4167 135.333C56.6962 135.753 57.4225 136.909 56.9445 136.75C56.1032 136.47 57.4407 134.836 58.2223 134.417C63.3117 131.689 71.8515 130.213 74.1945 124.139C74.7994 122.571 74.6366 120.765 74.25 119.181C74.0119 118.204 73.496 117.333 74.7778 117.042C76.2755 116.701 77.6341 116.879 79.1667 116.944C83.0916 117.113 86.7724 117.573 90.6389 116.681C93.6556 115.984 90.4419 117.15 89.5834 117.389C86.3183 118.299 83.1341 119.541 80.2223 121.306C76.2019 123.741 70.6822 127.578 71.0278 132.972C71.1712 135.21 72.4565 137.151 72.4028 139.458C72.3037 143.718 72.0076 138.539 71.8473 142.611C71.7801 144.317 72.2744 145.749 72.625 147.417C73.2814 150.538 73.4843 153.042 73 156.194C72.7895 157.565 71.4102 162.009 74.1945 161.972C75.3229 161.958 76.2569 161.109 77.3889 161.069C78.9941 161.013 80.6882 161.907 81.9723 162.778C83.6778 163.935 85.4928 166.683 84.6111 168.847C84.5333 169.038 84.3339 169.555 84.1667 169.694C83.6752 170.104 79.285 167.864 79.2778 167.861C74.2726 165.638 69.7826 163.152 65.8056 159.278C61.087 154.682 58.2296 150.426 54.3195 145.056C52.0204 141.898 45.0085 132.165 42.8195 128.694C38.512 121.866 36.1551 115.291 34.0556 107.583C33.2382 104.582 32.7454 101.188 30.1667 99.1111C28.7896 98.0018 26.989 97.4529 25.2223 97.6389C23.1431 97.8578 22.1835 99.4231 20.4167 100.139C18.4788 100.924 17.91 92.8563 17.7223 91.8056C17.3012 89.4494 16.5528 87.4617 15.9028 85.2084C15.6684 84.3958 15.6637 83.643 15.6945 82.8056C15.7102 82.3783 15.9958 81.4153 15.5834 81.5278C14.3207 81.8722 14.5212 85.7508 14.5 86.6389C14.4572 88.4387 13.5031 90.143 13.5695 91.9028C13.73 96.1567 21.1776 97.6624 24.1389 98.8334C28.8481 100.695 33.0173 103.311 37.4445 105.722C43.1283 108.818 48.9445 110.676 55.4584 110.819C56.3064 110.838 58.8179 110.919 58 110.694C57.0017 110.42 55.5033 110.657 54.7778 109.722C53.6435 108.261 54.75 104.903 54.75 103.153C54.75 101.142 54.7081 98.6306 54.1945 96.6945C53.6778 94.7469 53.5579 93.154 51.75 92.25" stroke="#851515" stroke-width="10" stroke-linecap="round"/>
<path d="M44 75C50.3976 78.7232 53.3986 84.3184 54.125 91.2917C54.2718 92.7006 54.3465 94.1173 54.4861 95.5139C54.6015 96.6679 55.0554 99.417 54.5 100.25" stroke="#851515" stroke-width="10" stroke-linecap="round"/>
<path d="M44.25 77.5C46.0729 83.6129 48.7355 90.1508 49 96.5" stroke="#851515" stroke-width="10" stroke-linecap="round"/>
<path d="M50.75 72C52.4382 73.8758 52.5989 75.6936 52.8889 78.0139C53.1417 80.0361 52.497 81.988 53 84" stroke="#851515" stroke-width="10" stroke-linecap="round"/>
<path d="M24.7499 52.75C25.5599 54.0156 26.8532 55.2108 27.7499 56.3611C30.1332 59.4187 32.4177 62.7162 33.6943 66.4167C34.9945 70.1852 32.8349 73.8681 28.8193 71.3889C26.4283 69.9127 22.168 65.0166 26.5971 63.125C31.22 61.1506 32.9643 69.1369 33.9999 72" stroke="#851515" stroke-width="10" stroke-linecap="round"/>
<path d="M21.7499 28C20.3701 27.419 18.3276 27.7045 16.861 27.75C14.417 27.8258 13.2017 29.4056 12.0138 31.375C10.3183 34.1859 8.85201 37.574 9.16659 40.9444C9.77164 47.4271 12.0001 53.751 12.8055 60.2222C13.5699 66.3641 15.3885 72.5335 14.9999 78.75" stroke="#851515" stroke-width="10" stroke-linecap="round"/>
<path d="M15.9999 28.25C11.6894 28.9351 7.92014 31.3353 6.30544 35.5556C5.40758 37.9022 5.64373 40.7857 5.88877 43.2361C6.42742 48.6226 8.95401 53.6971 9.88877 59.0278C10.4651 62.3142 11.5966 65.5021 11.9999 68.8056C12.45 72.4921 13.4062 76.1437 12.861 79.8611C12.7018 80.9463 12.2448 82.1592 12.3332 83.2639C12.4319 84.4976 13.1568 85.6632 13.4443 86.8611C14.028 89.293 14.0236 92.2477 12.9999 94.5" stroke="#851515" stroke-width="10" stroke-linecap="round"/>
<path d="M23 52.5C27.1848 55.5688 30.1125 60.0306 34.5694 62.875C36.9699 64.407 39.864 64.8131 42.1944 66.4444C43.6316 67.4505 45.6082 67.8582 46.75 69" stroke="#851515" stroke-width="10" stroke-linecap="round"/>
<path d="M16.25 29.75C21.3624 29.6819 23.9558 34.6525 24.4444 39.1111C24.6117 40.6377 24.1523 42.125 23.0278 43.1945C22.5965 43.6046 19.3452 46.2167 18.7083 45.1389C18.4216 44.6537 18.6755 43.6974 18.6944 43.1945C18.7364 42.0782 18.6062 40.9996 18.5278 39.8889C18.4355 38.5818 19.0334 36.8837 18.75 35.75" stroke="#851515" stroke-width="10" stroke-linecap="round"/>
<path d="M20.25 38.75C20.6268 42.3292 22.4275 46.6775 25 49.25" stroke="#851515" stroke-width="10" stroke-linecap="round"/>
<path d="M20.25 29.25C25.17 30.0372 26.4819 35.3958 28.5556 39C30.3484 42.1162 30.0778 45.175 30.1111 48.6389C30.1244 50.0192 30.5 51.3503 30.5 52.75C30.5 53.4363 30.3073 54.269 30.8056 54.8056C31.7447 55.8169 32.2126 57.129 33.1528 58.1389C34.8987 60.0142 36.4718 60.25 38.75 60.25" stroke="#851515" stroke-width="10" stroke-linecap="round"/>
<path d="M21.25 26C21.4338 26.6433 23.5873 27.91 23.9444 28.1944C26.0925 29.9054 28.3003 31.6472 30.0556 33.7778C33.1521 37.5365 34.3349 42.052 36.4861 46.3056C38.6943 50.6717 39.4279 54.9181 39.75 59.75" stroke="#851515" stroke-width="10" stroke-linecap="round"/>
<path d="M60 88C60 91.06 60 94.2637 60 97.2585C60 98.1608 60 98.9564 60 99.906C60 100.634 60 101.258 60 102" stroke="#040404" stroke-width="3" stroke-linecap="round"/>
</svg>
